<svg width="835" height="447" viewBox="0 0 835 447" fill="none" xmlns="http://www.w3.org/2000/svg">
<path d="M119.623 446.951C118.776 446.951 117.942 446.607 117.333 445.956L114.657 443.082L109.025 446.334C107.554 447.182 105.684 446.706 104.795 445.262L103.114 442.521L98.8197 445.002C98.0351 445.451 97.0965 445.549 96.242 445.255C95.3874 444.96 94.7009 444.308 94.3577 443.474L93.335 440.951L90.0639 442.836C89.2163 443.327 88.1936 443.39 87.29 443.012C86.3864 442.633 85.714 441.855 85.4688 440.909L84.8734 438.61L82.4428 440.019C81.5462 440.537 80.4465 440.579 79.5149 440.124C78.5833 439.668 77.9318 438.785 77.7847 437.755L77.4835 435.659L75.7324 436.668C74.7938 437.215 73.631 437.229 72.6784 436.71C71.7257 436.191 71.1023 435.21 71.0463 434.124L70.9412 432.21L69.7784 432.883C68.7978 433.451 67.593 433.444 66.6193 432.862C65.6457 432.28 65.0643 431.222 65.0923 430.093L65.1344 428.341L64.4689 428.726C63.4533 429.315 62.1924 429.28 61.2118 428.642C60.2241 428.004 59.6778 426.869 59.7968 425.705L59.9579 424.107L59.7688 424.219C58.7181 424.829 57.4153 424.773 56.4206 424.079C55.4259 423.385 54.9216 422.179 55.1247 420.981L55.3769 419.516C54.3472 419.985 53.1354 419.866 52.2178 419.179C51.2162 418.436 50.7538 417.168 51.034 415.955L51.3703 414.518C50.4176 414.798 49.3739 414.609 48.5684 413.978C47.5667 413.193 47.1395 411.869 47.4897 410.642L47.924 409.142C47.0624 409.282 46.1588 409.051 45.4583 408.469C44.4497 407.642 44.0574 406.282 44.4777 405.048L45.0241 403.422C44.2535 403.457 43.476 403.205 42.8596 402.679C41.851 401.824 41.4937 400.429 41.956 399.195L42.6285 397.401C41.858 397.359 41.1085 397.036 40.5481 396.448C39.5534 395.41 39.3853 393.833 40.1488 392.613L40.5621 391.955L34.405 395.515C33.1512 396.237 31.5611 396.006 30.5665 394.955C29.5718 393.903 29.4317 392.298 30.2303 391.085L30.6365 390.469L18.7917 397.31C17.4678 398.074 15.7867 397.765 14.8131 396.588C13.8394 395.41 13.8604 393.7 14.8621 392.543L15.2053 392.151L7.80141 396.427C6.51956 397.17 4.88748 396.903 3.89983 395.796C2.91217 394.688 2.84213 393.041 3.72471 391.849L4.18702 391.233C2.78609 391.737 1.18903 391.184 0.418524 389.852C-0.443046 388.359 0.0682921 386.438 1.56028 385.576L14.0916 378.335C15.3734 377.592 17.0055 377.859 17.9932 378.966C18.9808 380.074 19.0509 381.721 18.1683 382.912L17.783 383.431L28.2479 377.389C29.5718 376.625 31.2529 376.926 32.2266 378.111C33.2002 379.288 33.1792 380.999 32.1775 382.155L31.8343 382.555L38.93 378.454C40.1838 377.732 41.7739 377.964 42.7686 379.015C43.7632 380.067 43.9033 381.672 43.1048 382.884L42.6985 383.501L48.3302 380.249C49.5701 379.527 51.1461 379.751 52.1408 380.788C53.1354 381.826 53.3035 383.403 52.54 384.623L52.428 384.805L60.6164 380.074C61.7861 379.401 63.2571 379.548 64.2658 380.452C64.4199 380.592 64.553 380.739 64.6791 380.901L69.3231 378.216C70.1567 377.739 71.1583 377.662 72.0479 378.02L78.0299 380.41L123.994 353.858C123.28 353.648 122.642 353.185 122.222 352.505C121.333 351.068 121.746 349.183 123.154 348.25L145.408 333.496C145.008 333.25 144.658 332.914 144.392 332.486C143.502 331.056 143.895 329.178 145.295 328.231L162.464 316.631C161.987 316.385 161.567 316.007 161.259 315.523C160.362 314.1 160.755 312.222 162.142 311.276L177.335 300.887C176.837 300.642 176.396 300.257 176.074 299.752C175.177 298.329 175.562 296.457 176.942 295.504L192.037 285.088C191.568 284.843 191.155 284.471 190.854 283.995C189.957 282.579 190.335 280.707 191.708 279.747L208.043 268.406C207.651 268.167 207.3 267.831 207.041 267.417C206.145 266.001 206.523 264.13 207.903 263.169L226.451 250.293C226.136 250.062 225.856 249.767 225.632 249.41C224.742 247.973 225.155 246.087 226.57 245.155L251.093 228.942C250.785 228.732 250.512 228.466 250.288 228.143C249.356 226.811 249.601 224.989 250.855 223.951L272.92 205.573L272.71 204.045L271.414 204.795C270.559 205.285 269.523 205.348 268.619 204.963C267.715 204.57 267.043 203.778 266.812 202.818L266.266 200.547L264.192 201.745C263.387 202.215 262.413 202.292 261.537 201.97C260.662 201.647 259.982 200.946 259.674 200.063L259.156 198.563L214.41 224.414C213.458 224.968 212.288 224.975 211.328 224.442L206.502 221.757L196.037 227.807C194.657 228.606 192.899 228.234 191.96 226.952L189.887 224.134L183.226 227.982C182.406 228.459 181.411 228.536 180.529 228.185C179.646 227.842 178.967 227.113 178.68 226.208L177.923 223.811L173.181 226.552C172.179 227.127 170.946 227.106 169.973 226.503C168.992 225.893 168.425 224.8 168.502 223.643L168.607 221.968L165.301 223.874C164.166 224.533 162.737 224.407 161.735 223.566C160.727 222.725 160.355 221.344 160.797 220.11L161.182 219.031L159.179 220.187C157.953 220.895 156.405 220.692 155.403 219.69C154.401 218.687 154.198 217.138 154.906 215.912L155.326 215.19L154.542 215.645C153.26 216.388 151.628 216.122 150.64 215.014C150.395 214.734 150.206 214.426 150.073 214.096L116.135 236.057C116.59 237.34 116.163 238.805 115.021 239.639L95.8777 253.503C95.9898 253.623 96.0949 253.756 96.1929 253.896C97.1105 255.263 96.8163 257.099 95.5205 258.116L83.0452 267.845C83.2203 267.999 83.3814 268.181 83.5215 268.385C84.4532 269.716 84.208 271.539 82.9682 272.576L73.8061 280.245C74.0162 280.413 74.2054 280.616 74.3665 280.84C75.3051 282.137 75.116 283.939 73.9252 285.004L66.7314 291.453C66.9556 291.621 67.1587 291.824 67.3338 292.063C68.2865 293.324 68.1394 295.098 67.0046 296.198L61.1557 301.834C61.3869 302.002 61.597 302.205 61.7791 302.437C62.7388 303.663 62.6477 305.416 61.569 306.537L56.6307 311.661C56.8479 311.815 57.051 312.004 57.2261 312.222C58.1928 313.413 58.1577 315.131 57.1421 316.28L53.0584 320.878C53.2825 321.033 53.4857 321.215 53.6678 321.432C54.6484 322.582 54.6624 324.264 53.7098 325.435L50.3406 329.57C50.5787 329.724 50.7959 329.907 50.992 330.131C51.9797 331.238 52.0497 332.893 51.1601 334.084L48.3653 337.827C48.6244 337.982 48.8626 338.171 49.0727 338.402C50.0674 339.475 50.1795 341.094 49.3529 342.299L47.0274 345.685C47.3216 345.839 47.5877 346.043 47.8259 346.288C48.8206 347.325 48.9817 348.916 48.2042 350.129L46.2639 353.178C46.6001 353.332 46.9153 353.55 47.1885 353.823C48.1901 354.839 48.3793 356.402 47.6508 357.622L45.9907 360.405C46.3759 360.559 46.7332 360.783 47.0414 361.092C48.043 362.08 48.2602 363.622 47.5737 364.849L46.1098 367.456C46.7892 367.695 47.3916 368.171 47.7839 368.844C48.6454 370.344 48.1341 372.258 46.6421 373.12L40.415 376.716C39.1962 377.417 37.6552 377.221 36.6535 376.232C35.6518 375.244 35.4347 373.702 36.1212 372.475L37.4871 370.036C36.9967 369.889 36.5414 369.622 36.1702 369.237C35.1685 368.221 34.9794 366.657 35.7079 365.438L37.2699 362.816C36.8146 362.655 36.3943 362.396 36.0511 362.031C35.0565 360.994 34.8953 359.403 35.6729 358.19L37.431 355.428C36.9967 355.26 36.5905 354.994 36.2542 354.629C35.2596 353.557 35.1475 351.937 35.9741 350.732L37.9634 347.83C37.5291 347.655 37.1298 347.381 36.8076 347.01C35.82 345.895 35.7499 344.248 36.6395 343.056L38.937 339.986C38.5027 339.804 38.1105 339.517 37.7883 339.138C36.8076 337.989 36.7936 336.306 37.7462 335.136L40.38 331.904C39.9387 331.708 39.5394 331.414 39.2172 331.014C38.2506 329.823 38.2856 328.105 39.3013 326.956L42.3343 323.542C41.872 323.339 41.4587 323.023 41.1295 322.603C40.1698 321.376 40.2609 319.624 41.3396 318.502L44.8489 314.864C44.3726 314.654 43.9383 314.325 43.6021 313.876C42.6495 312.614 42.7966 310.841 43.9313 309.74L47.987 305.836C47.4897 305.619 47.0344 305.268 46.6982 304.799C45.7595 303.502 45.9487 301.701 47.1395 300.635L51.8676 296.394C51.3422 296.17 50.8729 295.806 50.5227 295.308C49.5911 293.976 49.8362 292.154 51.0761 291.116L56.6728 286.434C56.1124 286.21 55.6221 285.817 55.2578 285.284C54.3402 283.918 54.6344 282.081 55.9303 281.065L62.7738 275.73C62.1784 275.499 61.6531 275.086 61.2818 274.518C60.3782 273.123 60.7214 271.258 62.0733 270.284L70.7941 263.969C70.1357 263.737 69.5543 263.289 69.162 262.651C68.2794 261.2 68.7067 259.314 70.1287 258.389L82.5969 250.321C81.7634 250.167 80.9999 249.683 80.5165 248.912C79.62 247.489 80.0052 245.618 81.3851 244.664L102.539 230.057C102.266 229.825 102.028 229.545 101.839 229.223C100.977 227.723 101.488 225.809 102.98 224.947L143.166 201.731L142.494 200.946L136.939 204.157C135.643 204.907 133.997 204.633 133.016 203.498L130.53 200.631L126.124 203.175C125.339 203.631 124.394 203.722 123.539 203.421C122.684 203.126 121.998 202.467 121.662 201.626L120.653 199.11L117.627 200.862C116.738 201.374 115.659 201.423 114.727 200.981C113.803 200.547 113.144 199.678 112.976 198.668L112.619 196.523L110.679 197.645C109.719 198.199 108.535 198.206 107.568 197.659C106.602 197.112 105.999 196.089 105.985 194.981L105.957 193.145L104.879 193.769C103.863 194.35 102.609 194.322 101.629 193.692C100.641 193.061 100.095 191.932 100.207 190.762L100.361 189.156L100.003 189.367C98.9458 189.977 97.6289 189.913 96.6342 189.212C95.6396 188.505 95.1422 187.285 95.3664 186.086L95.6326 184.656C94.5819 185.147 93.328 185.021 92.3964 184.299C91.3948 183.528 90.9535 182.224 91.2897 180.997L91.6749 179.595C90.7223 179.834 89.6926 179.617 88.9081 178.972C87.8994 178.138 87.5212 176.764 87.9555 175.53L88.4808 174.023C87.6403 174.1 86.7787 173.841 86.1203 173.252C85.1116 172.362 84.7894 170.932 85.3077 169.691L86.0152 168.009C85.2727 167.988 84.5442 167.7 83.9768 167.168C82.9682 166.228 82.695 164.742 83.2974 163.509L84.222 161.602C83.5706 161.518 82.9472 161.224 82.4568 160.74C81.4552 159.759 81.224 158.231 81.8965 157.004L83.0802 154.831C82.5129 154.705 81.9735 154.41 81.5392 153.976C80.5376 152.96 80.3554 151.396 81.0839 150.17L82.5479 147.73C82.0366 147.576 81.5602 147.289 81.175 146.882C80.1803 145.831 80.0402 144.226 80.8388 143.013L82.5899 140.342C82.1136 140.174 81.6723 139.887 81.3151 139.487C80.3274 138.387 80.2434 136.747 81.1119 135.555L83.2273 132.639C82.772 132.457 82.3518 132.162 82.0155 131.77C81.0349 130.62 81.0139 128.938 81.9595 127.767L84.5582 124.55C84.1099 124.354 83.7037 124.052 83.3814 123.653C82.4148 122.454 82.4638 120.73 83.4935 119.587L86.7297 116.006C86.2814 115.795 85.8751 115.48 85.5599 115.066C84.6073 113.812 84.7333 112.052 85.8471 110.945L89.9238 106.914C89.4615 106.697 89.0412 106.353 88.726 105.912C87.7874 104.608 87.9905 102.8 89.1953 101.741L94.4067 97.143C93.8954 96.9117 93.4401 96.5332 93.1039 96.0355C92.1863 94.6687 92.4875 92.8252 93.7903 91.8158L100.809 86.4045C100.186 86.1662 99.6252 85.7316 99.254 85.1148C98.3644 83.6708 98.7916 81.7853 100.207 80.86L110.749 73.9627C109.894 73.8295 109.095 73.3389 108.598 72.5538C107.702 71.1449 108.066 69.2734 109.439 68.3131L127.721 55.4507C127.42 55.2123 127.16 54.918 126.957 54.5605C126.096 53.0675 126.607 51.1469 128.099 50.2847L167.129 27.7352C168.579 26.9011 170.428 27.3497 171.325 28.7586C172.221 30.1675 171.857 32.039 170.484 32.9993L170.365 33.0834L194.811 18.9593C196.275 18.1112 198.152 18.5878 199.035 20.0318C199.693 21.1042 199.63 22.422 198.972 23.4104L212.596 15.5387C213.927 14.7677 215.615 15.0831 216.589 16.2747C217.555 17.4663 217.52 19.1907 216.491 20.3332L216.154 20.7047L228.3 13.6882C229.596 12.9452 231.235 13.2116 232.223 14.3401C233.204 15.4686 233.253 17.1299 232.335 18.3145L231.957 18.7981L242.275 12.8331C243.542 12.1041 245.14 12.3424 246.134 13.4219C247.129 14.4943 247.241 16.1135 246.414 17.3191L246.015 17.9009L255.128 12.6368C256.368 11.9218 257.93 12.1391 258.932 13.1625C259.933 14.1859 260.108 15.763 259.359 16.9827L258.946 17.6626L267.169 12.9102C268.381 12.2092 269.915 12.3985 270.917 13.3798C271.918 14.3611 272.149 15.8892 271.47 17.1229L271.05 17.8939L278.461 13.6111C279.651 12.9242 281.143 13.0924 282.152 14.0247C283.161 14.9569 283.441 16.4359 282.845 17.6696L282.425 18.5458L289.094 14.6906C290.242 14.0247 291.692 14.1649 292.701 15.034C293.71 15.9032 294.053 17.3191 293.563 18.5528L293.163 19.5622L299.145 16.1065C300.252 15.4616 301.639 15.5668 302.648 16.3588C303.649 17.1509 304.07 18.4827 303.705 19.7094L303.348 20.901L308.735 17.7888C310.227 16.9266 312.139 17.4383 313.007 18.9313C313.869 20.4243 313.358 22.3449 311.866 23.2071L299.678 30.2516C298.571 30.8895 297.184 30.7913 296.175 29.9993C295.174 29.2072 294.753 27.8754 295.118 26.6487L295.475 25.4571L288.519 29.4736C287.363 30.1395 285.921 29.9993 284.912 29.1301C283.903 28.2609 283.56 26.845 284.05 25.6113L284.45 24.595L276.807 29.0109C275.624 29.6979 274.125 29.5296 273.116 28.5974C272.107 27.6651 271.827 26.1861 272.423 24.9524L272.843 24.0763L264.514 28.8918C263.303 29.5927 261.769 29.4035 260.767 28.4221C259.765 27.4408 259.534 25.9127 260.214 24.6791L260.634 23.908L251.43 29.2282C250.19 29.9432 248.628 29.7259 247.626 28.7025C246.625 27.6791 246.449 26.102 247.199 24.8823L247.612 24.2024L237.196 30.2236C235.928 30.9526 234.331 30.7142 233.337 29.6348C232.342 28.5623 232.23 26.9431 233.057 25.7375L233.456 25.1557L221.289 32.1862C219.993 32.9362 218.354 32.6629 217.366 31.5343C216.385 30.4058 216.336 28.7446 217.254 27.56L217.632 27.0763L202.397 35.8802C201.066 36.6513 199.378 36.3358 198.405 35.1442C197.438 33.9526 197.473 32.2283 198.503 31.0857L198.839 30.7142L174.729 44.6421C173.237 45.5042 171.325 44.9925 170.456 43.4995C170.288 43.2121 170.176 42.9037 170.106 42.5953L136.126 64.8294C136.365 65.9719 135.951 67.1986 134.978 67.9556L117.613 81.3437C118.51 82.6474 118.293 84.4138 117.102 85.4652L107.877 93.5962C107.961 93.6804 108.045 93.7785 108.115 93.8766C109.067 95.1313 108.941 96.8907 107.828 97.9982L101.544 104.209C101.678 104.321 101.797 104.447 101.909 104.587C102.875 105.786 102.826 107.51 101.797 108.653L97.2506 113.685C97.4187 113.819 97.5798 113.966 97.7269 114.134C98.7076 115.284 98.7286 116.966 97.783 118.136L94.3927 122.328C94.6099 122.475 94.813 122.644 94.9951 122.847C95.9828 123.947 96.0668 125.587 95.1983 126.779L92.6066 130.347C92.8797 130.501 93.1319 130.697 93.356 130.936C94.3507 131.987 94.4908 133.592 93.6923 134.805L91.6749 137.882C92.0112 138.036 92.3264 138.254 92.5995 138.534C93.6012 139.55 93.7833 141.113 93.0549 142.34L91.4508 145.025C91.8571 145.172 92.2353 145.41 92.5575 145.726C93.5592 146.707 93.7903 148.235 93.1179 149.462L91.829 151.824C92.2984 151.957 92.7396 152.195 93.1109 152.546C94.1196 153.485 94.3927 154.971 93.7903 156.205L92.7817 158.287C93.321 158.392 93.8324 158.637 94.2667 159.016C95.2753 159.906 95.5975 161.336 95.0792 162.576L94.3157 164.392C94.9391 164.441 95.5485 164.679 96.0598 165.1C97.0685 165.934 97.4468 167.308 97.0125 168.542L96.4591 170.126C97.1946 170.091 97.9301 170.301 98.5395 170.771C99.5412 171.542 99.9824 172.845 99.6462 174.072L99.254 175.509C100.102 175.32 101.005 175.488 101.741 176.007C102.735 176.715 103.233 177.934 103.008 179.133L102.742 180.57C103.702 180.135 104.823 180.212 105.719 180.787C106.707 181.418 107.253 182.546 107.141 183.717L106.987 185.322L107.435 185.063C108.395 184.509 109.579 184.502 110.545 185.049C111.512 185.596 112.114 186.619 112.128 187.726L112.157 189.563L113.382 188.855C114.272 188.343 115.351 188.301 116.282 188.736C117.207 189.17 117.865 190.04 118.033 191.049L118.391 193.194L120.646 191.89C121.431 191.434 122.376 191.35 123.231 191.645C124.085 191.939 124.772 192.598 125.108 193.439L126.117 195.956L129.633 193.923C130.929 193.173 132.575 193.446 133.556 194.582L136.042 197.449L141.618 194.231C142.921 193.474 144.581 193.762 145.555 194.904L147.999 197.764L160.783 190.376C162.107 189.612 163.788 189.913 164.761 191.098C165.735 192.283 165.707 193.993 164.698 195.143L162.919 197.182C163.066 197.203 163.213 197.238 163.353 197.287L174.652 190.762C176.123 189.913 178 190.39 178.883 191.841C179.107 192.206 179.247 192.598 179.303 192.991L187.835 188.063C188.619 187.607 189.572 187.516 190.426 187.818C191.288 188.119 191.974 188.778 192.304 189.619L193.298 192.128L203.728 186.1C205.171 185.266 207.013 185.715 207.917 187.11L209.703 189.871L217.254 185.504C218.662 184.691 220.455 185.091 221.38 186.423L223.334 189.219L229.4 185.715C230.836 184.881 232.678 185.322 233.582 186.717L235.382 189.486L240.369 186.605C241.091 186.184 241.952 186.072 242.758 186.297C243.563 186.514 244.25 187.054 244.656 187.783L246.169 190.481L250.197 188.154C250.96 187.712 251.871 187.614 252.712 187.881C253.552 188.147 254.239 188.757 254.603 189.556L255.787 192.142L258.981 190.299C259.73 189.864 260.62 189.766 261.439 190.012L284.12 176.911C283.763 176.659 283.455 176.329 283.224 175.923C282.362 174.423 282.874 172.509 284.366 171.647L285.906 170.757C285.906 169.747 286.404 168.759 287.3 168.163L296.904 161.763C296.07 161.616 295.307 161.14 294.816 160.376C293.913 158.974 294.27 157.102 295.629 156.135L313.624 143.286C313.372 143.062 313.148 142.796 312.965 142.487C312.104 140.994 312.615 139.074 314.107 138.212L348.941 118.087C350.384 117.253 352.233 117.702 353.137 119.104C354.041 120.506 353.683 122.377 352.324 123.344L352.205 123.429L368.89 113.791C370.354 112.942 372.218 113.412 373.107 114.849C373.822 115.999 373.703 117.435 372.897 118.445L378.697 115.094C379.713 114.513 380.966 114.541 381.954 115.171C382.942 115.809 383.488 116.938 383.376 118.108L383.222 119.707L383.467 119.566C384.742 118.83 386.353 119.083 387.348 120.169C388.335 121.256 388.433 122.889 387.579 124.087L386.157 126.085C386.906 126.218 387.607 126.625 388.097 127.277C389.05 128.531 388.917 130.305 387.789 131.405L384.308 134.812C384.903 135.022 385.435 135.422 385.814 135.976C386.738 137.314 386.486 139.137 385.232 140.174L378.865 145.417C379.383 145.656 379.839 146.034 380.175 146.539C381.086 147.92 380.763 149.77 379.446 150.766L369.031 158.588C369.5 158.854 369.906 159.247 370.2 159.745C371.062 161.238 370.551 163.158 369.059 164.02L337.489 182.259C336.06 183.086 334.232 182.652 333.314 181.271C332.403 179.89 332.725 178.039 334.042 177.044L351.484 163.943C351.428 163.873 351.372 163.803 351.316 163.726C350.391 162.387 350.643 160.565 351.897 159.527L365.066 148.677C364.134 147.422 364.267 145.67 365.388 144.569L373.752 136.382C372.974 135.303 372.953 133.838 373.738 132.73L377.331 127.69C376.666 127.038 376.315 126.106 376.406 125.153L376.561 123.555L375.083 124.41C373.584 125.279 371.671 124.76 370.81 123.267C370.186 122.188 370.277 120.898 370.936 119.938L350.545 133.529C350.931 133.768 351.274 134.104 351.533 134.511C352.43 135.926 352.044 137.805 350.664 138.758L329.938 153.072C330.183 153.268 330.4 153.506 330.582 153.787C331.493 155.174 331.156 157.032 329.826 158.02L314.513 169.327C314.703 169.495 314.878 169.691 315.032 169.908C315.956 171.247 315.704 173.077 314.443 174.107L303.32 183.254C303.411 183.346 303.502 183.451 303.586 183.556C304.546 184.797 304.434 186.549 303.334 187.67L297.1 193.986C297.1 193.986 297.142 194.028 297.163 194.049C297.856 194.743 298.165 195.703 298.053 196.629L313.456 187.734C314.857 186.927 316.622 187.32 317.553 188.61L321.07 186.577C322.562 185.715 324.481 186.226 325.343 187.719C325.63 188.217 325.763 188.757 325.763 189.297L349.319 175.684C350.811 174.822 352.724 175.334 353.592 176.827C354.454 178.327 353.943 180.24 352.451 181.103L298.501 212.267C297.919 212.603 297.261 212.736 296.61 212.666C297.471 213.584 297.702 214.944 297.177 216.101L296.757 217.019C297.976 216.409 299.467 216.662 300.42 217.664C301.415 218.708 301.562 220.307 300.777 221.519L300.301 222.255C301.499 221.835 302.865 222.185 303.712 223.18C304.693 224.33 304.707 226.012 303.754 227.183L303.124 227.961C304.266 227.716 305.491 228.129 306.241 229.096C307.201 230.33 307.103 232.075 306.017 233.197L305.043 234.199C306.129 234.08 307.243 234.536 307.922 235.475C308.861 236.772 308.672 238.573 307.474 239.639L305.933 241.02C306.983 240.977 308.013 241.461 308.644 242.386C309.561 243.739 309.288 245.576 308.006 246.599L305.54 248.562C306.57 248.569 307.572 249.087 308.16 250.02C309.057 251.443 308.672 253.314 307.292 254.267L302.781 257.38C303.789 257.387 304.77 257.884 305.365 258.782C306.276 260.155 305.961 262.006 304.644 263.008L295.468 269.962C296 270.228 296.456 270.642 296.778 271.195C297.639 272.695 297.128 274.609 295.636 275.471L264.15 293.668C262.721 294.495 260.893 294.067 259.982 292.686C259.072 291.312 259.387 289.462 260.704 288.46L260.858 288.341L243.024 298.644C241.574 299.486 239.718 299.023 238.821 297.607C237.925 296.191 238.31 294.313 239.69 293.359L270.37 272.17C269.509 270.824 269.803 269.036 271.057 268.034L280.898 260.197C280.625 260.008 280.387 259.763 280.177 259.482C279.238 258.186 279.427 256.384 280.625 255.319L286.355 250.188C285.991 249.992 285.668 249.718 285.402 249.375C284.443 248.141 284.541 246.396 285.626 245.274L289.031 241.763C288.582 241.58 288.176 241.286 287.84 240.9C286.859 239.751 286.845 238.069 287.798 236.898L289.857 234.368C289.332 234.22 288.848 233.933 288.449 233.512C287.455 232.468 287.307 230.87 288.092 229.657L289.36 227.695C288.785 227.596 288.239 227.337 287.784 226.93C286.775 226.019 286.474 224.554 287.041 223.321L287.784 221.687C287.153 221.673 286.523 221.463 285.991 221.064C284.989 220.314 284.534 219.038 284.828 217.818L285.206 216.262C284.302 216.423 283.371 216.178 282.663 215.589L274.377 221.071C275.238 222.479 274.853 224.323 273.487 225.269L257.061 236.674C257.454 236.912 257.797 237.248 258.056 237.662C258.953 239.078 258.574 240.949 257.195 241.91L244.236 250.91C244.775 251.155 245.259 251.555 245.595 252.095C246.491 253.517 246.106 255.389 244.726 256.342L233.007 264.431C233.631 264.662 234.184 265.09 234.57 265.7C235.466 267.123 235.074 269.001 233.687 269.948L221.933 277.987C222.592 278.212 223.173 278.653 223.572 279.291C224.462 280.721 224.07 282.6 222.669 283.546L218.011 286.693C218.858 286.476 219.769 286.616 220.518 287.114C221.506 287.773 222.038 288.929 221.891 290.107L221.702 291.649L224.224 290.191C225.169 289.644 226.325 289.63 227.285 290.156C228.244 290.682 228.861 291.663 228.91 292.756L229.001 294.663L229.932 294.123C230.913 293.556 232.125 293.563 233.099 294.151C234.072 294.733 234.654 295.799 234.619 296.934L234.563 298.672L235.774 297.972C236.874 297.334 238.254 297.432 239.256 298.21C240.257 298.988 240.692 300.299 240.348 301.525L240.005 302.752L241.028 302.163C242.233 301.469 243.746 301.651 244.747 302.605C245.749 303.565 246.008 305.065 245.371 306.299L244.95 307.119L245.644 306.719C246.919 305.983 248.53 306.236 249.517 307.322C250.505 308.409 250.61 310.035 249.763 311.24L249.37 311.801L249.552 311.696C250.869 310.932 252.55 311.233 253.524 312.411C254.498 313.582 254.484 315.292 253.489 316.449L253.097 316.911C254.386 316.364 255.906 316.75 256.781 317.878C257.741 319.112 257.636 320.871 256.543 321.986L255.927 322.617C257.131 322.315 258.434 322.757 259.198 323.801C260.143 325.091 259.968 326.879 258.792 327.958L257.762 328.904C258.897 328.75 260.066 329.22 260.76 330.215C261.691 331.547 261.446 333.369 260.199 334.407L258.553 335.781C259.639 335.718 260.732 336.208 261.369 337.176C262.28 338.556 261.965 340.407 260.648 341.402L258.021 343.386C259.135 343.386 260.214 343.926 260.809 344.949C261.67 346.449 261.159 348.363 259.667 349.225L219.503 372.433C218.074 373.26 216.245 372.833 215.335 371.452C214.424 370.071 214.739 368.221 216.056 367.225L228.286 357.994C228.006 357.79 227.761 357.545 227.558 357.251C226.626 355.919 226.871 354.096 228.118 353.059L234.156 348.019C233.68 347.802 233.246 347.465 232.916 347.017C231.971 345.727 232.146 343.94 233.323 342.86L237.035 339.454C236.447 339.264 235.914 338.907 235.508 338.388C234.549 337.154 234.654 335.395 235.746 334.281L238.177 331.799C237.518 331.652 236.902 331.295 236.44 330.741C235.466 329.57 235.48 327.86 236.475 326.703L238.142 324.762C237.448 324.664 236.783 324.327 236.279 323.773C235.291 322.687 235.186 321.061 236.034 319.855L237.14 318.292C236.419 318.25 235.718 317.956 235.165 317.437C234.163 316.477 233.904 314.977 234.542 313.743L235.207 312.446C234.436 312.509 233.652 312.292 233.015 311.801C232.013 311.023 231.579 309.712 231.922 308.486L232.286 307.175C231.424 307.469 230.465 307.378 229.666 306.902C228.693 306.32 228.111 305.254 228.146 304.119L228.202 302.373L227.691 302.668C226.745 303.215 225.59 303.229 224.63 302.703C223.67 302.177 223.054 301.196 223.005 300.102L222.914 298.196L219.39 300.229C218.361 300.824 217.086 300.782 216.098 300.123C215.111 299.465 214.578 298.308 214.725 297.13L214.915 295.588L212.694 296.871C212.302 297.102 211.875 297.229 211.447 297.278L197.165 306.74C197.865 306.972 198.489 307.455 198.881 308.142C199.742 309.642 199.231 311.556 197.739 312.418L181.979 321.523C182.721 321.741 183.387 322.238 183.8 322.96C184.661 324.46 184.15 326.374 182.658 327.236L79.8791 386.613C79.0526 387.09 78.0439 387.167 77.1543 386.81L71.1724 384.419L67.0466 386.803C67.2077 387.013 67.3408 387.244 67.4459 387.497L68.4896 390.027L72.2301 387.868C73.0076 387.419 73.9392 387.328 74.7938 387.616C75.6413 387.903 76.3348 388.541 76.678 389.368L77.7427 391.913L81.8124 389.564C82.5899 389.116 83.5145 389.025 84.3691 389.305C85.2167 389.585 85.9031 390.223 86.2533 391.043L87.3391 393.595L91.766 391.036C92.5365 390.588 93.4681 390.497 94.3157 390.777C95.1633 391.057 95.8497 391.695 96.1999 392.515L97.2927 395.067L102.133 392.27C102.903 391.828 103.828 391.73 104.669 392.004C105.509 392.277 106.203 392.908 106.56 393.721L107.688 396.286L112.997 393.216C113.761 392.775 114.678 392.677 115.519 392.95C116.359 393.223 117.046 393.833 117.41 394.639L118.58 397.219L124.387 393.868C125.136 393.434 126.033 393.335 126.859 393.581C127.686 393.833 128.372 394.415 128.757 395.186L130.053 397.815L136.379 394.163C137.857 393.307 139.755 393.798 140.63 395.27L142.248 397.997L149.358 393.889C150.752 393.083 152.524 393.469 153.463 394.772L155.48 397.576L165.427 391.828C166.197 391.387 167.122 391.289 167.969 391.569C168.817 391.849 169.503 392.473 169.861 393.293L170.974 395.852L198.489 379.954C199.813 379.19 201.501 379.499 202.474 380.683C203.448 381.868 203.413 383.585 202.397 384.735L202.061 385.12L251.913 356.318C253.405 355.456 255.324 355.968 256.186 357.461C257.047 358.961 256.536 360.875 255.044 361.737L188.598 400.128C187.274 400.892 185.586 400.583 184.612 399.399C183.646 398.214 183.674 396.497 184.689 395.347L185.026 394.969L171.08 403.023C170.309 403.464 169.384 403.562 168.537 403.282C167.689 403.002 167.003 402.378 166.646 401.558L165.532 398.999L156.167 404.41C154.773 405.217 153.001 404.831 152.062 403.527L150.045 400.723L142.711 404.957C141.226 405.812 139.334 405.322 138.459 403.85L136.841 401.123L130.299 404.901C129.549 405.336 128.652 405.434 127.826 405.188C126.999 404.936 126.313 404.354 125.928 403.583L124.632 400.955L118.727 404.368C117.963 404.81 117.046 404.908 116.205 404.635C115.365 404.361 114.678 403.752 114.314 402.945L113.144 400.366L107.8 403.457C107.029 403.899 106.104 403.997 105.264 403.724C104.416 403.443 103.73 402.819 103.373 402.006L102.245 399.441L97.3767 402.251C96.5992 402.7 95.6746 402.791 94.827 402.511C93.9795 402.23 93.293 401.593 92.9428 400.773L91.8501 398.221L87.4161 400.787C86.6386 401.235 85.714 401.326 84.8594 401.046C84.0119 400.766 83.3254 400.128 82.9752 399.308L81.8895 396.756L77.8058 399.118C77.0282 399.567 76.0966 399.658 75.2421 399.371C74.3945 399.083 73.701 398.445 73.3578 397.618L72.2931 395.074L68.5316 397.247C67.7541 397.695 66.8155 397.793 65.9609 397.499C65.1063 397.205 64.4199 396.567 64.0767 395.733L63.033 393.202L59.5867 395.193C58.4169 395.866 56.9459 395.719 55.9373 394.814C54.9286 393.91 54.6134 392.466 55.1528 391.233L55.566 390.286L51.0831 392.88L50.6628 394.001C51.3212 394.029 51.9586 394.268 52.491 394.702C53.4997 395.529 53.8919 396.889 53.4716 398.123L52.9253 399.749C53.6538 399.721 54.3893 399.938 54.9916 400.415C55.9933 401.2 56.4206 402.525 56.0704 403.752L55.6361 405.266C56.4416 405.146 57.2822 405.343 57.9616 405.847C58.9633 406.59 59.4256 407.859 59.1454 409.072L58.8092 410.523C59.6918 410.277 60.6584 410.432 61.4359 410.971C62.4306 411.665 62.9349 412.871 62.7318 414.069L62.4796 415.541C63.4392 415.114 64.553 415.198 65.4426 415.773C66.4302 416.411 66.9766 417.546 66.8575 418.71L66.6964 420.308L66.9135 420.182C67.8942 419.614 69.099 419.621 70.0726 420.203C71.0463 420.785 71.6277 421.843 71.5996 422.971L71.5576 424.724L72.3071 424.289C73.2457 423.743 74.4085 423.729 75.3611 424.247C76.3138 424.766 76.9372 425.747 76.9932 426.834L77.0983 428.747L78.4292 427.976C79.3258 427.458 80.4255 427.415 81.3571 427.871C82.2887 428.327 82.9402 429.21 83.0872 430.24L83.3885 432.336L85.3918 431.18C86.2393 430.689 87.262 430.626 88.1656 431.004C89.0692 431.383 89.7417 432.161 89.9868 433.107L90.5822 435.413L93.3981 433.787C94.1826 433.339 95.1212 433.247 95.9758 433.535C96.8304 433.822 97.5168 434.481 97.86 435.315L98.8827 437.839L102.7 435.631C104.164 434.782 106.041 435.259 106.931 436.703L108.612 439.444L113.761 436.465C115.021 435.736 116.618 435.974 117.613 437.04L120.289 439.913L127.56 435.715C128.442 435.203 129.521 435.161 130.453 435.589L135.881 438.133L160.902 423.672C162.401 422.81 164.313 423.322 165.175 424.815C166.036 426.315 165.525 428.229 164.033 429.091L137.597 444.364C136.715 444.876 135.636 444.918 134.711 444.491L129.283 441.946L121.27 446.579C120.779 446.86 120.24 447 119.708 447L119.623 446.951ZM190.714 216.865C191.68 216.865 192.626 217.313 193.235 218.141L195.309 220.958L204.891 215.428C205.844 214.881 207.013 214.867 207.973 215.4L212.799 218.085L250.736 196.166L250.323 195.269L246.533 197.456C245.812 197.876 244.95 197.988 244.145 197.764C243.339 197.547 242.653 197.007 242.247 196.278L240.734 193.579L235.921 196.362C234.485 197.196 232.643 196.755 231.74 195.36L229.939 192.591L223.951 196.054C222.543 196.867 220.749 196.467 219.825 195.135L217.87 192.339L210.228 196.755C208.785 197.589 206.943 197.14 206.04 195.745L204.253 192.984L193.263 199.334C192.479 199.79 191.526 199.881 190.671 199.58C189.81 199.278 189.123 198.619 188.794 197.778L187.8 195.269L166.912 207.339C166.842 207.633 166.73 207.914 166.576 208.187L166.071 209.056C167.059 208.755 168.159 208.965 168.978 209.652C169.987 210.493 170.358 211.874 169.917 213.108L169.531 214.187L170.505 213.627C171.5 213.052 172.74 213.066 173.713 213.676C174.694 214.285 175.261 215.379 175.184 216.535L175.079 218.211L178.147 216.437C178.967 215.961 179.961 215.884 180.844 216.234C181.727 216.577 182.406 217.306 182.693 218.211L183.45 220.608L189.158 217.306C189.649 217.026 190.188 216.886 190.721 216.886L190.714 216.865ZM292.729 208.881C292.995 209.491 293.058 210.185 292.897 210.858L292.582 212.162L292.736 212.077C293.324 211.741 293.983 211.608 294.627 211.678C294.305 211.334 294.06 210.921 293.92 210.458L293.317 208.503L292.729 208.888V208.881ZM283.203 205.103C283.203 205.103 283.175 205.131 283.161 205.138L282.958 205.306L283.273 205.124C283.273 205.124 283.231 205.103 283.21 205.096L283.203 205.103ZM310.115 197.386L299.306 204.528L310.78 197.897C310.535 197.757 310.311 197.589 310.115 197.386ZM275.154 195.85C275.624 195.85 276.093 195.956 276.527 196.173C277.459 196.629 278.11 197.526 278.25 198.556L278.538 200.638L279.595 200.028C280.492 199.509 281.55 199.488 282.439 199.881L283.252 199.061C282.138 199.187 281.003 198.71 280.324 197.736C279.399 196.397 279.651 194.568 280.912 193.537L283 191.82C281.963 191.82 280.947 191.329 280.345 190.404C279.434 189.016 279.77 187.159 281.101 186.17L283.161 184.649L269.193 192.717C269.306 192.752 269.418 192.794 269.53 192.836C270.433 193.229 271.106 194.021 271.337 194.981L271.883 197.252L273.592 196.264C274.076 195.984 274.615 195.843 275.154 195.843V195.85ZM634.815 393.826C634.401 393.826 633.981 393.742 633.589 393.574C632.685 393.188 632.013 392.403 631.774 391.45L631.207 389.165L627.509 391.303C626.493 391.884 625.239 391.856 624.259 391.226C623.278 390.595 622.724 389.466 622.837 388.296L622.991 386.683C621.814 387.286 620.371 387.076 619.404 386.151C618.403 385.183 618.158 383.669 618.802 382.443L620.077 380.01C619.397 379.807 618.788 379.38 618.368 378.749C617.457 377.375 617.765 375.524 619.082 374.522L624.777 370.197C624.027 370.015 623.341 369.552 622.893 368.851C621.989 367.442 622.353 365.578 623.712 364.611L641.798 351.741C641.567 351.545 641.364 351.314 641.196 351.04C640.292 349.631 640.663 347.76 642.036 346.8L681.633 318.965C681.465 317.829 681.935 316.652 682.929 315.951L697.835 305.458C697.457 305.233 697.128 304.918 696.862 304.532C695.944 303.173 696.224 301.336 697.513 300.32L710.773 289.834C710.612 289.658 710.465 289.469 710.346 289.252C709.484 287.752 709.995 285.838 711.487 284.976L731.822 273.228C733.244 272.408 735.051 272.822 735.975 274.181C736.893 275.541 736.613 277.378 735.324 278.394L735.142 278.534L740.451 275.464C741.901 274.623 743.751 275.079 744.654 276.487C745.558 277.896 745.187 279.768 743.821 280.728L704.658 308.296C704.833 309.439 704.364 310.624 703.362 311.332L701.982 312.299C702.269 313.21 702.122 314.233 701.541 315.054L699.026 318.565C699.355 318.748 699.656 318.993 699.916 319.294C700.889 320.451 700.896 322.147 699.93 323.311L698.059 325.568C698.753 325.722 699.404 326.115 699.867 326.717C700.819 327.965 700.707 329.724 699.593 330.839L697.492 332.942C698.319 333.054 699.096 333.503 699.614 334.232C700.546 335.549 700.329 337.358 699.11 338.416L696.525 340.645C697.492 340.743 698.403 341.29 698.928 342.194C699.789 343.694 699.278 345.608 697.786 346.47L673.347 360.594C671.953 361.4 670.167 361.015 669.235 359.697C668.304 358.379 668.521 356.571 669.74 355.512L678.201 348.201C678.026 348.054 677.858 347.886 677.711 347.697C676.758 346.449 676.87 344.69 677.984 343.575L684.001 337.568C683.875 337.456 683.756 337.337 683.644 337.204C682.67 336.047 682.663 334.358 683.623 333.187L688.05 327.846C687.987 327.79 687.924 327.727 687.868 327.657C686.88 326.563 686.782 324.93 687.643 323.731L689.584 321.019L681.739 326.535C681.893 326.689 682.026 326.858 682.152 327.047C683.055 328.456 682.691 330.32 681.332 331.288L662.756 344.507C662.952 344.683 663.134 344.886 663.281 345.117C664.192 346.491 663.884 348.342 662.567 349.344L630.1 374.01C630.051 374.34 629.939 374.669 629.778 374.985L628.104 378.174C628.188 378.216 628.272 378.265 628.356 378.321C629.344 378.952 629.89 380.081 629.778 381.251L629.624 382.856L631.676 381.672C632.524 381.181 633.561 381.118 634.464 381.503C635.368 381.889 636.04 382.674 636.271 383.627L636.839 385.912L690.123 355.127C691.559 354.3 693.387 354.734 694.298 356.115C695.208 357.503 694.879 359.354 693.548 360.349L684.148 367.344C684.709 367.604 685.206 368.038 685.535 368.62C686.397 370.12 685.885 372.034 684.393 372.896L649.741 392.915C648.305 393.742 646.477 393.307 645.567 391.927C644.656 390.539 644.985 388.688 646.316 387.693L646.463 387.581L636.362 393.413C635.879 393.693 635.34 393.833 634.8 393.833L634.815 393.826ZM562.162 393.791C561.777 393.791 561.385 393.721 561.021 393.574C560.131 393.223 559.452 392.494 559.178 391.583L558.45 389.2L555.375 390.98C554.149 391.688 552.594 391.485 551.592 390.476C550.591 389.466 550.395 387.917 551.109 386.69L551.529 385.976L551.326 386.095C549.967 386.88 548.244 386.536 547.285 385.296C546.325 384.055 546.437 382.296 547.537 381.181L548.517 380.186C547.404 380.319 546.269 379.835 545.589 378.861C544.665 377.522 544.917 375.693 546.178 374.662L548.265 372.945C548.265 372.945 548.244 372.945 548.23 372.945C547.208 372.945 546.206 372.44 545.61 371.529C544.7 370.141 545.036 368.284 546.367 367.295L549.904 364.688C548.903 364.653 547.943 364.141 547.369 363.23C546.472 361.807 546.857 359.935 548.237 358.982L554.023 354.987C553.07 354.909 552.16 354.391 551.62 353.522C550.731 352.085 551.137 350.206 552.545 349.267L562.148 342.867C561.322 342.72 560.551 342.243 560.061 341.479C559.157 340.077 559.515 338.206 560.874 337.239L578.868 324.39C578.609 324.166 578.392 323.9 578.21 323.591C577.348 322.098 577.86 320.178 579.352 319.315L614.186 299.191C615.629 298.357 617.478 298.806 618.382 300.208C619.285 301.609 618.928 303.481 617.569 304.448L617.443 304.532L634.128 294.894C635.592 294.046 637.455 294.516 638.352 295.953C639.066 297.102 638.947 298.539 638.142 299.549L643.942 296.198C644.957 295.609 646.211 295.644 647.199 296.275C648.186 296.913 648.733 298.042 648.621 299.212L648.467 300.81L648.712 300.67C649.987 299.934 651.598 300.186 652.592 301.273C653.58 302.359 653.678 303.993 652.823 305.191L651.401 307.189C652.151 307.322 652.851 307.729 653.342 308.381C654.294 309.635 654.161 311.409 653.034 312.509L649.559 315.916C650.155 316.126 650.687 316.526 651.072 317.079C651.997 318.418 651.745 320.241 650.491 321.278L644.124 326.521C644.642 326.759 645.097 327.138 645.434 327.643C646.344 329.023 646.022 330.874 644.705 331.869L634.289 339.692C634.758 339.958 635.165 340.351 635.452 340.848C636.313 342.349 635.802 344.262 634.31 345.124L602.74 363.363C601.304 364.19 599.476 363.755 598.566 362.375C597.655 360.994 597.977 359.143 599.294 358.148L616.736 345.047C616.68 344.977 616.623 344.907 616.567 344.83C615.643 343.491 615.895 341.669 617.149 340.631L630.318 329.781C629.386 328.526 629.519 326.773 630.64 325.673L639.003 317.486C638.226 316.406 638.205 314.941 638.989 313.834L642.576 308.794C641.91 308.142 641.56 307.21 641.651 306.257L641.805 304.652L640.327 305.507C638.835 306.369 636.923 305.857 636.054 304.364C635.431 303.285 635.522 301.995 636.18 301.035L615.79 314.626C616.175 314.864 616.518 315.201 616.778 315.607C617.674 317.03 617.289 318.902 615.909 319.855L595.182 334.168C595.427 334.365 595.645 334.603 595.827 334.883C596.737 336.271 596.401 338.129 595.07 339.117L579.758 350.423C579.947 350.592 580.122 350.788 580.276 351.005C581.201 352.344 580.949 354.173 579.688 355.204L568.565 364.351C568.656 364.442 568.747 364.548 568.831 364.653C569.79 365.893 569.678 367.653 568.579 368.767L562.345 375.09C562.345 375.09 562.387 375.132 562.408 375.153C563.409 376.162 563.605 377.711 562.891 378.938L561.343 381.581C561.343 381.581 561.399 381.602 561.434 381.616C562.324 381.966 563.003 382.695 563.276 383.606L564.005 385.99L614.55 356.788C616.042 355.926 617.961 356.438 618.823 357.931C619.685 359.431 619.173 361.344 617.681 362.206L563.732 393.371C563.248 393.651 562.709 393.791 562.169 393.791H562.162ZM402.695 393.188C402.036 393.188 401.378 392.978 400.825 392.571C399.823 391.821 399.361 390.553 399.655 389.333L399.97 388.022L395.55 390.581C394.205 391.359 392.482 391.029 391.522 389.803C390.563 388.576 390.654 386.831 391.733 385.702L392.055 385.366C390.675 386.06 388.973 385.632 388.083 384.349C387.159 383.01 387.411 381.181 388.672 380.151L390.633 378.545C389.568 378.587 388.531 378.076 387.915 377.137C387.004 375.749 387.334 373.898 388.665 372.903L393.547 369.279C392.692 369.153 391.901 368.676 391.396 367.912L381.618 373.562C380.154 374.41 378.291 373.94 377.401 372.503C376.512 371.066 376.918 369.188 378.319 368.249L401.987 352.442C401.665 352.211 401.385 351.916 401.161 351.559C400.271 350.129 400.663 348.25 402.057 347.304L418.714 336.033C418.287 335.816 417.902 335.493 417.601 335.08C416.662 333.783 416.851 331.982 418.042 330.916L430.545 319.673C430.041 318.572 430.202 317.248 431.036 316.301L438.04 308.31C437.697 307.666 437.592 306.909 437.753 306.166L438.054 304.827L436.877 305.507C435.385 306.369 433.466 305.857 432.605 304.364C432.149 303.572 432.079 302.654 432.331 301.848L408.474 317.626C408.761 317.843 409.013 318.117 409.216 318.439C410.113 319.862 409.728 321.734 408.348 322.687L385.498 338.451C385.681 338.619 385.842 338.809 385.982 339.019C386.892 340.407 386.563 342.257 385.239 343.246L368.757 355.526C368.869 355.638 368.975 355.765 369.066 355.898C369.997 357.223 369.766 359.038 368.533 360.083L358.327 368.76C358.398 368.83 358.461 368.9 358.524 368.978C359.49 370.176 359.441 371.908 358.405 373.043L353.866 378.041C353.908 378.076 353.957 378.111 353.999 378.146C355.007 378.994 355.372 380.389 354.916 381.623L354.524 382.681L354.839 382.499C356.331 381.637 358.25 382.148 359.112 383.641C359.974 385.134 359.462 387.055 357.97 387.917L350.153 392.438C349.011 393.097 347.582 392.971 346.574 392.123C345.565 391.275 345.201 389.88 345.656 388.646L346.048 387.588L343.849 388.856C342.511 389.627 340.816 389.312 339.849 388.106C338.883 386.908 338.932 385.176 339.968 384.041L340.655 383.284C339.471 383.522 338.21 383.06 337.475 382.022C336.543 380.697 336.774 378.882 338.007 377.838L340.143 376.022C339.149 376.001 338.182 375.503 337.601 374.613C336.69 373.225 337.019 371.375 338.343 370.386L342.056 367.618C341.082 367.562 340.157 367.05 339.597 366.167C338.7 364.744 339.086 362.872 340.466 361.919L346.56 357.713C345.621 357.622 344.738 357.103 344.206 356.241C343.317 354.804 343.73 352.919 345.145 351.987L355.14 345.384C354.3 345.243 353.515 344.76 353.025 343.982C352.121 342.573 352.493 340.701 353.858 339.741L372.001 326.942C371.706 326.703 371.447 326.409 371.244 326.066C370.382 324.565 370.894 322.652 372.386 321.79L410.736 299.633C412.186 298.799 414.035 299.247 414.932 300.656C415.836 302.065 415.464 303.937 414.098 304.897L413.986 304.981L431.974 294.586C433.438 293.738 435.308 294.214 436.198 295.651C436.758 296.556 436.8 297.642 436.401 298.553L441.108 295.834C442.187 295.21 443.525 295.287 444.527 296.023C445.528 296.759 445.998 298.021 445.724 299.233L445.395 300.705C446.558 300.383 447.84 300.768 448.638 301.736C449.612 302.92 449.584 304.631 448.568 305.787L444.442 310.497C444.709 310.687 444.94 310.918 445.143 311.198C446.082 312.495 445.892 314.297 444.702 315.362L444.456 315.579L475.214 297.81C476.671 296.969 478.534 297.432 479.431 298.862C480.327 300.292 479.928 302.17 478.534 303.116L461.779 314.458C462.269 314.71 462.697 315.089 463.012 315.593C463.901 317.03 463.495 318.909 462.094 319.848L443.385 332.339C443.896 332.605 444.337 333.012 444.646 333.545C445.507 335.045 444.996 336.958 443.504 337.82L437.165 341.486C437.837 342.825 437.459 344.479 436.233 345.398L422.392 355.674C422.637 355.863 422.854 356.094 423.036 356.36C423.961 357.699 423.709 359.529 422.448 360.559L411.752 369.335C411.871 369.447 411.983 369.566 412.088 369.699C413.048 370.926 412.957 372.672 411.878 373.8L406.652 379.232C407.605 379.989 408.039 381.23 407.759 382.415L407.444 383.725L443.21 363.062C443.854 362.69 444.569 362.571 445.248 362.676C445.388 361.835 445.864 361.057 446.628 360.559L453.499 356.08C452.477 356.073 451.482 355.554 450.894 354.636C449.997 353.227 450.361 351.356 451.734 350.395L454.949 348.138C455.16 347.381 455.664 346.701 456.399 346.274L460.707 343.785C460.126 343.547 459.615 343.134 459.257 342.559C458.361 341.136 458.753 339.257 460.133 338.311L472.965 329.514C472.363 329.276 471.838 328.855 471.466 328.266C470.577 326.837 470.969 324.958 472.37 324.012L488.425 313.161C487.899 312.909 487.444 312.516 487.115 311.99C486.225 310.561 486.631 308.675 488.032 307.736L505.481 296.072C504.963 295.82 504.507 295.427 504.178 294.901C503.288 293.464 503.702 291.579 505.117 290.647L524.379 277.917C523.861 277.665 523.406 277.266 523.084 276.74C522.201 275.296 522.621 273.403 524.043 272.478L546.115 258.137C545.589 257.877 545.127 257.471 544.798 256.931C543.922 255.466 544.378 253.566 545.828 252.662L573.167 235.65C572.487 235.426 571.885 234.97 571.486 234.311C570.603 232.867 571.03 230.975 572.452 230.05L612.484 204.073C612.337 203.911 612.204 203.729 612.091 203.533C611.643 202.755 611.566 201.858 611.811 201.059L593.256 211.783C591.82 212.61 589.992 212.176 589.081 210.795C588.171 209.407 588.5 207.556 589.831 206.568L589.971 206.463L579.884 212.295C579.03 212.785 578 212.848 577.096 212.463C576.193 212.077 575.52 211.292 575.282 210.339L574.715 208.054L571.016 210.192C570.001 210.781 568.747 210.746 567.766 210.115C566.778 209.484 566.232 208.355 566.344 207.185L566.498 205.573C565.315 206.175 563.879 205.965 562.912 205.04C561.91 204.073 561.665 202.559 562.31 201.332L563.584 198.9C562.905 198.696 562.296 198.262 561.875 197.631C560.965 196.257 561.273 194.407 562.59 193.404L568.284 189.079C567.535 188.897 566.856 188.434 566.4 187.734C565.497 186.325 565.861 184.46 567.22 183.493L585.306 170.623C585.075 170.427 584.871 170.196 584.696 169.922C583.793 168.514 584.164 166.642 585.537 165.682L625.141 137.84C624.973 136.705 625.442 135.52 626.437 134.819L641.336 124.333C640.958 124.108 640.628 123.793 640.362 123.408C639.445 122.048 639.725 120.211 641.014 119.195L654.28 108.709C654.119 108.533 653.972 108.344 653.853 108.127C652.992 106.627 653.503 104.713 654.995 103.851L675.329 92.1032C676.751 91.2831 678.558 91.6967 679.483 93.0565C680.401 94.4164 680.12 96.2528 678.832 97.2692L678.656 97.4094L683.966 94.3392C685.416 93.5051 687.265 93.9537 688.169 95.3626C689.072 96.7715 688.701 98.6431 687.335 99.6034L648.165 127.172C648.34 128.314 647.871 129.499 646.869 130.207L645.49 131.174C645.777 132.085 645.637 133.109 645.048 133.929L642.541 137.434C642.87 137.616 643.171 137.861 643.43 138.162C644.404 139.319 644.411 141.015 643.444 142.179L641.574 144.436C642.267 144.59 642.919 144.983 643.381 145.586C644.334 146.833 644.222 148.593 643.108 149.707L641.007 151.81C641.833 151.922 642.611 152.371 643.122 153.1C644.054 154.417 643.836 156.226 642.618 157.284L640.033 159.513C641 159.611 641.91 160.158 642.436 161.062C643.297 162.562 642.786 164.476 641.294 165.338L616.848 179.462C615.447 180.268 613.667 179.883 612.736 178.565C611.804 177.247 612.021 175.439 613.24 174.38L621.709 167.07C621.534 166.922 621.366 166.754 621.219 166.565C620.266 165.317 620.378 163.558 621.492 162.443L627.509 156.436C627.383 156.324 627.264 156.205 627.151 156.072C626.178 154.915 626.171 153.219 627.137 152.055L631.564 146.721C631.501 146.665 631.438 146.602 631.382 146.532C630.395 145.438 630.297 143.805 631.158 142.607L633.105 139.887L625.26 145.403C625.414 145.557 625.547 145.726 625.673 145.915C626.577 147.324 626.213 149.188 624.854 150.156L606.278 163.376C606.474 163.551 606.656 163.754 606.803 163.985C607.714 165.359 607.405 167.21 606.089 168.212L573.629 192.878C573.58 193.215 573.468 193.537 573.307 193.853L571.633 197.042C571.717 197.084 571.801 197.133 571.885 197.189C572.872 197.82 573.419 198.949 573.307 200.119L573.153 201.724L575.205 200.54C576.053 200.049 577.089 199.986 577.993 200.372C578.896 200.757 579.569 201.542 579.807 202.495L580.374 204.781L633.659 173.995C635.095 173.168 636.923 173.602 637.833 174.983C638.744 176.364 638.415 178.222 637.084 179.21L627.684 186.205C628.244 186.465 628.742 186.899 629.071 187.481C629.519 188.259 629.596 189.156 629.351 189.955L673.977 164.175C675.448 163.327 677.326 163.803 678.208 165.247C679.091 166.691 678.664 168.584 677.242 169.509L677.179 169.551L708.426 151.502C709.904 150.646 711.795 151.137 712.671 152.602C712.846 152.889 712.965 153.198 713.035 153.506L722.414 148.088C723.157 147.66 724.04 147.555 724.859 147.794C725.679 148.032 726.365 148.6 726.757 149.357L728.13 152.013L739.506 145.438C740.956 144.604 742.805 145.053 743.702 146.462L745.46 149.216L753.466 144.59C754.223 144.149 755.133 144.05 755.967 144.317C756.8 144.583 757.487 145.186 757.858 145.978L759.07 148.579L765.507 144.857C766.333 144.38 767.328 144.303 768.218 144.653C769.107 145.004 769.78 145.74 770.06 146.651L770.789 149.034L776.147 145.943C777.037 145.431 778.115 145.389 779.04 145.824C779.965 146.258 780.623 147.121 780.791 148.13L781.155 150.275L785.568 147.723C786.514 147.177 787.67 147.163 788.629 147.688C789.589 148.207 790.205 149.195 790.254 150.282L790.345 152.188L793.876 150.149C794.87 149.574 796.103 149.588 797.084 150.198C798.065 150.801 798.632 151.894 798.562 153.044L798.464 154.726L801.231 153.128C802.274 152.525 803.57 152.574 804.565 153.261C805.56 153.941 806.071 155.132 805.882 156.324L805.651 157.803L807.696 156.618C808.782 155.995 810.134 156.072 811.135 156.829C812.137 157.586 812.592 158.861 812.291 160.081L811.969 161.378L813.363 160.572C814.483 159.92 815.891 160.032 816.9 160.852C817.909 161.672 818.301 163.025 817.902 164.259L817.53 165.394L818.238 164.988C819.394 164.315 820.851 164.462 821.859 165.338C822.868 166.214 823.204 167.637 822.7 168.878L822.294 169.873L822.364 169.831C823.554 169.144 825.053 169.313 826.062 170.252C827.071 171.191 827.344 172.677 826.734 173.911L826.265 174.878C827.365 174.521 828.591 174.794 829.438 175.628C830.44 176.623 830.65 178.166 829.957 179.392L829.305 180.549C830.272 180.423 831.266 180.752 831.967 181.495C832.962 182.539 833.116 184.131 832.338 185.343L831.379 186.843C832.205 186.871 833.011 187.222 833.599 187.867C834.587 188.953 834.685 190.586 833.83 191.785L832.415 193.776C833.102 193.895 833.753 194.245 834.236 194.806C835.217 195.942 835.259 197.61 834.328 198.787L832.317 201.339C832.899 201.514 833.438 201.865 833.844 202.362C834.811 203.554 834.769 205.278 833.746 206.421L830.503 210.038C831.056 210.304 831.54 210.725 831.869 211.299C832.73 212.792 832.219 214.713 830.727 215.575L819.541 222.038C818.21 222.809 816.515 222.493 815.548 221.302C814.581 220.11 814.624 218.386 815.646 217.243L819.716 212.701C819.485 212.547 819.275 212.365 819.085 212.147C818.105 211.012 818.063 209.344 818.994 208.166L821.376 205.138C820.956 204.963 820.563 204.703 820.241 204.346C819.254 203.259 819.156 201.626 820.01 200.428L821.614 198.171C821.047 198.03 820.521 197.736 820.094 197.294C819.099 196.25 818.945 194.659 819.723 193.446L820.83 191.715C820.136 191.645 819.471 191.343 818.945 190.825C817.944 189.829 817.734 188.287 818.427 187.061L819.177 185.743C818.35 185.785 817.509 185.504 816.872 184.909C815.863 183.969 815.59 182.483 816.2 181.25L816.711 180.198C815.737 180.444 814.68 180.198 813.902 179.518C812.893 178.642 812.557 177.219 813.061 175.979L813.468 174.983C812.361 175.565 811.016 175.439 810.036 174.647C809.027 173.827 808.635 172.474 809.034 171.24L809.405 170.105L808.74 170.49C807.654 171.121 806.295 171.037 805.3 170.28C804.299 169.523 803.843 168.247 804.145 167.028L804.467 165.731L803.115 166.509C802.071 167.112 800.775 167.063 799.781 166.376C798.786 165.696 798.275 164.504 798.464 163.312L798.695 161.833L796.566 163.06C795.571 163.635 794.338 163.614 793.357 163.011C792.377 162.408 791.809 161.315 791.879 160.165L791.978 158.483L789.043 160.179C788.097 160.726 786.941 160.74 785.982 160.214C785.022 159.696 784.406 158.707 784.356 157.621L784.265 155.714L780.392 157.95C779.502 158.462 778.424 158.511 777.499 158.069C776.574 157.635 775.916 156.773 775.748 155.763L775.383 153.618L770.515 156.429C769.689 156.906 768.694 156.983 767.805 156.632C766.915 156.282 766.242 155.546 765.962 154.635L765.234 152.252L759.245 155.714C758.488 156.156 757.578 156.254 756.744 155.988C755.911 155.721 755.224 155.118 754.853 154.326L753.641 151.726L745.999 156.142C744.549 156.976 742.7 156.527 741.803 155.118L740.045 152.364L728.417 159.079C727.675 159.506 726.792 159.611 725.973 159.373C725.153 159.135 724.467 158.567 724.075 157.81L722.702 155.153L697.779 169.551C696.287 170.413 694.368 169.901 693.506 168.408C693.471 168.345 693.436 168.282 693.408 168.219L628.566 208.566C629.351 209.996 628.91 211.797 627.53 212.694L595.981 233.197C596.261 233.421 596.506 233.688 596.702 234.01C597.592 235.447 597.179 237.333 595.764 238.265L570.939 254.66C571.289 254.898 571.591 255.207 571.829 255.592C572.718 257.022 572.312 258.908 570.911 259.847L549.547 274.139C549.932 274.385 550.269 274.714 550.521 275.128C551.41 276.558 551.018 278.436 549.617 279.382L530.572 292.252C530.978 292.497 531.342 292.841 531.608 293.268C532.505 294.691 532.112 296.57 530.733 297.516L513.326 309.446C513.725 309.684 514.083 310.021 514.349 310.441C515.252 311.85 514.881 313.722 513.508 314.682L513.396 314.759L545.043 296.478C546.514 295.63 548.384 296.107 549.274 297.551C549.337 297.649 549.393 297.754 549.435 297.852L554.03 295.196C555.074 294.593 556.37 294.642 557.364 295.322C558.359 296.002 558.87 297.193 558.688 298.385L558.457 299.864L560.797 298.511C562.148 297.726 563.879 298.07 564.831 299.31C565.791 300.551 565.679 302.303 564.586 303.418L563.612 304.406C564.74 304.28 565.889 304.764 566.561 305.759C567.479 307.119 567.192 308.955 565.91 309.972L562.863 312.369C563.823 312.432 564.74 312.93 565.301 313.799C566.204 315.201 565.847 317.072 564.488 318.04L558.933 322.007C559.865 322.126 560.733 322.666 561.245 323.549C562.106 325.049 561.595 326.963 560.103 327.825L511.134 356.115C509.684 356.949 507.841 356.501 506.938 355.099C506.034 353.697 506.391 351.825 507.75 350.858L527.398 336.832C527.258 336.692 527.125 336.531 527.006 336.362C526.089 335.003 526.376 333.166 527.658 332.15L543.313 319.82C542.423 318.586 542.549 316.883 543.621 315.797L551.74 307.553C551.326 306.916 551.151 306.145 551.27 305.367L551.501 303.888L546.157 306.979C544.7 307.82 542.851 307.357 541.954 305.955L488.747 340.61C489.146 341.844 488.747 343.239 487.661 344.059L469.771 357.636C469.771 357.636 469.771 357.636 469.771 357.643C470.717 358.933 470.535 360.727 469.358 361.8L460.959 369.468C461.001 369.51 461.043 369.559 461.086 369.608C462.066 370.744 462.101 372.419 461.163 373.597L457.954 377.627C458.039 377.676 458.116 377.732 458.193 377.795C459.194 378.566 459.636 379.87 459.306 381.097L458.956 382.401C460.021 382.008 461.226 382.211 462.101 382.968L465.407 385.849L545.758 339.426C547.215 338.584 549.064 339.047 549.96 340.463C550.857 341.879 550.479 343.757 549.099 344.711L531.524 356.9C531.909 357.16 532.246 357.51 532.491 357.938C533.352 359.431 532.841 361.351 531.349 362.213L486.4 388.183C484.943 389.025 483.094 388.562 482.197 387.146C481.301 385.73 481.679 383.852 483.059 382.898L483.164 382.828L466.612 392.396C465.456 393.062 464.006 392.922 462.998 392.046L459.692 389.165L455.545 391.562C454.445 392.193 453.079 392.102 452.071 391.331C451.062 390.56 450.628 389.256 450.957 388.029L451.293 386.782L449.647 387.735C448.344 388.485 446.698 388.205 445.717 387.069C444.737 385.933 444.702 384.258 445.64 383.081L446.292 382.26C445.129 382.492 443.896 382.043 443.161 381.041C442.215 379.751 442.397 377.957 443.574 376.884L445.64 374.992C444.702 374.929 443.798 374.445 443.245 373.604C442.586 372.608 442.565 371.361 443.105 370.372L404.285 392.803C403.802 393.083 403.262 393.223 402.723 393.223L402.695 393.188ZM447.84 366.265C447.833 366.307 447.826 366.356 447.812 366.398L447.966 366.279C447.924 366.279 447.882 366.272 447.833 366.265H447.84ZM258.679 390.861C257.685 390.861 256.718 390.391 256.116 389.522C255.184 388.191 255.429 386.368 256.676 385.331L258.175 384.083C257.061 384.181 255.927 383.676 255.268 382.681C254.358 381.293 254.694 379.436 256.032 378.447L261.194 374.648C260.347 374.515 259.555 374.038 259.051 373.267C258.14 371.879 258.476 370.022 259.814 369.034L268.353 362.746C267.75 362.515 267.211 362.101 266.84 361.519C265.936 360.118 266.287 358.253 267.645 357.279L278.384 349.568C277.837 349.323 277.347 348.916 277.011 348.37C276.114 346.947 276.506 345.068 277.9 344.122L291.398 334.925C290.831 334.694 290.319 334.295 289.955 333.748C289.045 332.367 289.36 330.517 290.684 329.521L308.356 316.224C308.258 316.098 308.167 315.965 308.083 315.825C307.222 314.325 307.733 312.411 309.225 311.549L332.438 298.14C333.867 297.313 335.695 297.747 336.613 299.121C337.524 300.502 337.208 302.352 335.885 303.348L335.73 303.467L348.115 296.31C349.572 295.469 351.435 295.932 352.324 297.355C353.221 298.778 352.829 300.656 351.435 301.602L323.283 320.773C323.388 320.893 323.479 321.012 323.563 321.152C324.467 322.554 324.117 324.418 322.758 325.393L308.875 335.367C309.246 335.598 309.568 335.914 309.82 336.299C310.731 337.687 310.395 339.545 309.057 340.533L304.027 344.234C304.889 344.36 305.688 344.837 306.199 345.622C307.11 347.01 306.773 348.867 305.435 349.856L289.059 361.905C289.213 362.052 289.36 362.213 289.486 362.396C290.418 363.727 290.172 365.55 288.926 366.587L276.702 376.779C276.801 376.898 276.885 377.031 276.969 377.165C277.83 378.665 277.319 380.578 275.827 381.44L260.249 390.441C259.758 390.721 259.219 390.861 258.686 390.861H258.679ZM716.559 353.529C715.48 353.529 714.429 352.968 713.848 351.966C712.986 350.465 713.498 348.552 714.99 347.69L726.197 341.213C727.689 340.351 729.608 340.863 730.47 342.356C731.331 343.856 730.82 345.769 729.328 346.631L718.121 353.108C717.63 353.395 717.091 353.529 716.559 353.529ZM331.156 322.519C330.078 322.519 329.027 321.958 328.446 320.956C327.584 319.463 328.095 317.542 329.587 316.68L363.469 297.109C364.968 296.247 366.873 296.759 367.742 298.252C368.127 298.925 368.239 299.682 368.106 300.383L374.235 296.843C375.524 296.1 377.149 296.366 378.137 297.474C379.124 298.581 379.194 300.236 378.305 301.427L377.919 301.946L379.117 301.252C380.378 300.523 381.975 300.761 382.963 301.827C383.957 302.892 384.084 304.497 383.271 305.71L381.716 308.03C382.493 308.233 383.187 308.738 383.621 309.488C384.483 310.988 383.971 312.902 382.479 313.764L374.319 318.481C373.058 319.21 371.461 318.972 370.474 317.906C369.479 316.841 369.353 315.236 370.165 314.023L370.572 313.42L367.889 314.969C366.607 315.712 364.975 315.446 363.987 314.339C363 313.231 362.93 311.577 363.819 310.385L364.204 309.867L354.587 315.425C353.088 316.287 351.176 315.776 350.314 314.283C349.929 313.61 349.817 312.853 349.95 312.152L332.725 322.105C332.235 322.393 331.696 322.526 331.163 322.526L331.156 322.519ZM522.908 212.463C522.446 212.463 521.977 212.358 521.549 212.155C520.618 211.706 519.966 210.823 519.819 209.799L519.504 207.696L515.049 210.269C513.809 210.984 512.247 210.767 511.253 209.743C510.251 208.72 510.076 207.15 510.818 205.93L511.232 205.243L509.978 205.972C508.633 206.75 506.931 206.421 505.964 205.208C504.998 203.995 505.075 202.257 506.132 201.122L506.798 200.407C505.614 200.666 504.339 200.203 503.59 199.166C502.658 197.855 502.868 196.047 504.087 194.988L505.866 193.439C504.843 193.474 503.821 192.963 503.211 192.044C502.819 191.456 502.651 190.776 502.693 190.11L465.085 211.832C464.21 212.337 463.145 212.386 462.22 211.965C461.303 211.545 460.644 210.704 460.448 209.708L460.028 207.521L452.813 211.692C451.531 212.435 449.899 212.169 448.911 211.061C447.924 209.954 447.854 208.299 448.736 207.115L449.122 206.596L447.419 207.584C446.04 208.383 444.274 208.012 443.336 206.722C442.39 205.432 442.572 203.645 443.749 202.566L444.653 201.738C443.476 201.949 442.236 201.458 441.529 200.414C440.611 199.054 440.891 197.217 442.18 196.201L445.234 193.79C444.281 193.727 443.378 193.229 442.817 192.374C441.914 190.979 442.25 189.121 443.588 188.14L449.843 183.556C449.059 183.381 448.351 182.911 447.882 182.182C446.978 180.773 447.349 178.902 448.715 177.941L458.445 171.086C457.786 170.862 457.191 170.42 456.792 169.789C455.895 168.366 456.28 166.495 457.66 165.542L470.815 156.478C470.248 156.233 469.75 155.826 469.4 155.266C468.503 153.836 468.903 151.957 470.297 151.011L486.316 140.174C485.966 140.006 485.644 139.775 485.371 139.473C484.376 138.401 484.264 136.782 485.097 135.576L486.575 133.431C486.26 133.361 485.959 133.242 485.672 133.081L478.296 137.342C477.035 138.071 475.438 137.833 474.45 136.768C473.659 135.919 473.414 134.721 473.764 133.662C473.428 133.592 473.098 133.473 472.797 133.298L471.859 133.838C470.57 134.581 468.945 134.314 467.957 133.207C466.969 132.099 466.899 130.445 467.789 129.253L468.174 128.735L458.557 134.293C457.065 135.155 455.153 134.644 454.284 133.151C453.899 132.478 453.787 131.721 453.92 131.013L436.695 140.966C435.203 141.828 433.284 141.317 432.423 139.824C431.561 138.324 432.072 136.41 433.564 135.548L467.446 115.978C468.938 115.115 470.857 115.627 471.719 117.12C472.104 117.793 472.216 118.55 472.083 119.258L478.212 115.718C479.501 114.975 481.126 115.242 482.113 116.349C483.101 117.456 483.171 119.111 482.282 120.302L481.896 120.814L483.094 120.12C484.355 119.391 485.952 119.629 486.94 120.695C487.934 121.76 488.06 123.365 487.248 124.578L486.435 125.784L487.5 126.618L494.386 122.644C495.653 121.915 497.257 122.153 498.245 123.232C499.233 124.312 499.352 125.924 498.518 127.13L498.119 127.711L543.677 101.391C545.134 100.55 546.997 101.012 547.894 102.442C548.791 103.872 548.391 105.751 546.997 106.697L526.229 120.744C526.572 120.975 526.873 121.284 527.111 121.662C527.223 121.837 527.314 122.027 527.384 122.209L527.959 121.879C529.199 121.165 530.775 121.382 531.769 122.412L534.557 125.293L540.364 121.936C541.856 121.073 543.775 121.585 544.637 123.078C545.498 124.578 544.987 126.492 543.495 127.354L535.573 131.931C534.333 132.646 532.757 132.429 531.762 131.398L528.974 128.517L522.481 132.268C521.059 133.088 519.266 132.667 518.348 131.342L509.137 137.686C509.53 137.924 509.873 138.254 510.139 138.667C511.043 140.076 510.671 141.948 509.305 142.908L493.685 153.913C494.042 154.144 494.358 154.453 494.61 154.831C495.513 156.226 495.177 158.083 493.839 159.065L480.11 169.13C480.404 169.341 480.67 169.607 480.888 169.922C481.805 171.282 481.525 173.119 480.236 174.135L469.218 182.827C469.428 182.995 469.624 183.198 469.792 183.423C470.738 184.712 470.556 186.5 469.379 187.579L462.563 193.811C462.725 193.93 462.872 194.07 463.005 194.224C463.992 195.332 464.062 196.986 463.18 198.171L462.199 199.481C462.662 199.467 463.124 199.565 463.551 199.762C464.469 200.182 465.127 201.023 465.323 202.019L465.744 204.206L500.045 184.39C501.537 183.528 503.457 184.039 504.318 185.533C504.612 186.051 504.752 186.612 504.738 187.173L507.134 185.35C506.146 185.308 505.201 184.797 504.626 183.906C503.73 182.49 504.101 180.619 505.474 179.659L510.902 175.852C509.95 175.768 509.053 175.25 508.514 174.38C507.624 172.944 508.038 171.058 509.446 170.126L513.823 167.231C514.013 167.042 514.23 166.866 514.482 166.726L515.308 166.249L518.713 163.992C517.844 163.866 517.032 163.376 516.527 162.576C515.624 161.168 515.995 159.296 517.368 158.336L535.671 145.459C535.37 145.221 535.111 144.927 534.907 144.576C534.046 143.076 534.557 141.163 536.049 140.3L575.016 117.786C576.466 116.952 578.315 117.4 579.219 118.809C580.122 120.218 579.751 122.09 578.378 123.05L578.259 123.134L595.056 113.433C596.52 112.585 598.39 113.055 599.28 114.498C599.546 114.926 599.693 115.403 599.735 115.872L601.283 114.975C602.502 114.274 604.029 114.47 605.038 115.452C606.039 116.433 606.264 117.968 605.591 119.195L605.122 120.043C606.516 119.538 608.113 120.092 608.883 121.424C609.745 122.917 609.234 124.837 607.742 125.7L598.586 130.992C597.368 131.693 595.834 131.503 594.832 130.515C593.83 129.534 593.606 127.999 594.279 126.772L596.359 122.994C595.988 122.735 595.659 122.398 595.42 121.978C595.231 121.648 595.105 121.298 595.042 120.94L568.249 138.681C568.446 138.863 568.621 139.067 568.768 139.298C569.664 140.714 569.293 142.578 567.92 143.546L558.457 150.177L564.999 152.041L601.858 130.746C603.35 129.884 605.269 130.396 606.13 131.889C606.992 133.382 606.481 135.303 604.989 136.165L566.982 158.125C566.246 158.546 565.371 158.658 564.558 158.427L557.462 156.401L553.82 158.504C552.328 159.366 550.416 158.854 549.547 157.361C549.414 157.13 549.309 156.885 549.239 156.632L547.369 157.943C547.558 158.111 547.726 158.308 547.873 158.525C548.784 159.899 548.475 161.749 547.159 162.752L533.002 173.518C533.149 173.658 533.289 173.813 533.415 173.988C534.347 175.299 534.137 177.107 532.918 178.166L525.003 185.049C525.199 185.203 525.381 185.378 525.535 185.582C526.502 186.794 526.425 188.533 525.367 189.668L521.662 193.628C521.956 193.776 522.222 193.979 522.46 194.217C523.462 195.241 523.637 196.811 522.894 198.03L521.977 199.537C522.411 199.551 522.845 199.65 523.252 199.846C524.183 200.294 524.835 201.178 524.982 202.201L525.297 204.304L530.214 201.465C531.706 200.603 533.626 201.115 534.487 202.608C535.349 204.108 534.837 206.021 533.345 206.883L524.449 212.021C523.966 212.302 523.427 212.442 522.887 212.442L522.908 212.463ZM362.656 209.736C361.662 209.736 360.695 209.267 360.093 208.397C359.161 207.066 359.406 205.243 360.653 204.206L362.152 202.958C361.031 203.063 359.904 202.552 359.245 201.556C358.334 200.168 358.671 198.311 360.009 197.322L365.171 193.523C364.323 193.39 363.532 192.913 363.028 192.142C362.117 190.755 362.453 188.897 363.791 187.909L372.33 181.621C371.727 181.39 371.195 180.976 370.817 180.395C369.913 178.993 370.263 177.128 371.622 176.154L382.36 168.443C381.814 168.198 381.324 167.792 380.987 167.245C380.091 165.822 380.483 163.943 381.877 162.997L395.382 153.801C394.815 153.569 394.303 153.17 393.939 152.623C393.028 151.242 393.351 149.392 394.668 148.396L412.34 135.106C412.242 134.98 412.151 134.847 412.067 134.707C411.205 133.207 411.717 131.293 413.209 130.431L436.429 117.015C437.858 116.188 439.686 116.615 440.604 117.996C441.515 119.377 441.199 121.228 439.875 122.223L439.721 122.335L452.106 115.178C453.562 114.337 455.426 114.8 456.315 116.223C457.205 117.646 456.813 119.524 455.426 120.471L427.267 139.648C427.372 139.768 427.463 139.887 427.547 140.027C428.451 141.429 428.101 143.293 426.742 144.268L412.859 154.235C413.23 154.467 413.552 154.782 413.804 155.167C414.715 156.555 414.379 158.413 413.041 159.401L408.011 163.109C408.866 163.235 409.671 163.712 410.176 164.497C411.086 165.885 410.75 167.742 409.412 168.731L393.035 180.78C393.19 180.927 393.337 181.089 393.463 181.271C394.394 182.603 394.149 184.425 392.902 185.462L380.679 195.654C380.777 195.773 380.861 195.907 380.938 196.04C381.8 197.533 381.289 199.453 379.797 200.315L364.225 209.316C363.735 209.596 363.196 209.736 362.663 209.736H362.656ZM145.982 193.327C145.008 193.327 144.049 192.871 143.439 192.023C142.501 190.72 142.704 188.911 143.909 187.853L146.241 185.792C145.337 185.715 144.483 185.252 143.93 184.46C143.005 183.121 143.25 181.299 144.504 180.261L147.523 177.759C146.64 177.661 145.814 177.191 145.281 176.399C144.364 175.039 144.651 173.196 145.94 172.186L149.764 169.179C148.903 169.06 148.097 168.584 147.579 167.806C146.668 166.425 146.991 164.574 148.307 163.579L153.127 159.955C152.286 159.822 151.502 159.338 151.004 158.567C150.101 157.172 150.444 155.308 151.796 154.333L157.729 150.037C156.895 149.889 156.132 149.406 155.641 148.635C154.745 147.219 155.116 145.347 156.489 144.387L163.76 139.298C162.933 139.144 162.17 138.653 161.686 137.882C160.797 136.452 161.189 134.574 162.59 133.627L171.654 127.501C170.806 127.34 170.036 126.828 169.56 126.036C168.684 124.571 169.146 122.672 170.596 121.767L182.847 114.169C181.811 114.148 180.802 113.608 180.228 112.655C179.345 111.197 179.8 109.297 181.243 108.393L197.97 97.865C197.13 97.7108 196.359 97.2131 195.876 96.4351C194.986 94.9981 195.4 93.1126 196.808 92.1803L225.954 72.8412C225.716 72.6239 225.506 72.3715 225.337 72.0771C224.476 70.5841 224.987 68.6635 226.479 67.8014L281.157 36.2097C282.621 35.3615 284.492 35.8311 285.381 37.2751C286.271 38.7191 285.857 40.5976 284.45 41.5299L284.372 41.5789L320.979 20.4313C322.457 19.5832 324.341 20.0668 325.217 21.5248C326.099 22.9828 325.644 24.8823 324.201 25.7866L324.145 25.8216L341.439 15.8261C342.462 15.2373 343.681 15.2864 344.626 15.8612L345.992 15.0761C347.323 14.305 349.011 14.6205 349.978 15.8121C350.398 16.3238 350.629 16.9406 350.671 17.5645L357.445 13.6532C358.72 12.9172 360.338 13.1695 361.325 14.263L363.924 17.1369L371.524 12.7489C372.778 12.027 374.361 12.2583 375.356 13.3027L378.088 16.1836L383.999 12.77C385.407 11.9569 387.208 12.3564 388.132 13.7022L390.059 16.492L394.149 14.1298C394.899 13.6952 395.788 13.5971 396.615 13.8424C397.441 14.0878 398.128 14.6695 398.513 15.4406L399.823 18.0761L402.338 16.6182C403.136 16.1556 404.103 16.0714 404.971 16.3869C405.84 16.7023 406.526 17.3892 406.842 18.2584L407.731 20.7257L409.02 19.9827C409.903 19.478 410.967 19.429 411.892 19.8495C412.817 20.2771 413.475 21.1183 413.657 22.1206L414.063 24.2936L414.224 24.2024C415.226 23.6206 416.473 23.6487 417.454 24.2655C418.434 24.8823 418.995 25.9898 418.911 27.1464L418.771 29.081C419.989 28.9198 421.243 29.4876 421.895 30.6161C422.756 32.1161 422.245 34.0297 420.753 34.8919L416.802 37.177C415.801 37.7588 414.561 37.7307 413.573 37.1139C412.592 36.497 412.032 35.3896 412.116 34.233L412.256 32.3124C411.668 32.3965 411.051 32.3124 410.498 32.0601C409.573 31.6325 408.915 30.7913 408.733 29.789L408.327 27.616L407.633 28.0156C406.835 28.4782 405.868 28.5623 404.999 28.2469C404.131 27.9315 403.444 27.2445 403.129 26.3754L402.24 23.908L400.075 25.1557C399.326 25.5903 398.436 25.6884 397.609 25.4431C396.783 25.1978 396.096 24.616 395.711 23.8449L394.401 21.2094L390.689 23.3543C389.281 24.1674 387.481 23.7608 386.556 22.422L384.63 19.6322L379.082 22.8356C377.828 23.5576 376.245 23.3262 375.251 22.2818L372.519 19.4009L364.87 23.8239C363.595 24.5599 361.977 24.3076 360.989 23.2141L358.391 20.3402L345.551 27.7562L345.908 29.5857L349.362 27.588C350.174 27.1184 351.162 27.0413 352.037 27.3707C352.913 27.7072 353.599 28.4151 353.894 29.3123L354.692 31.7306L357.83 29.9151C358.594 29.4736 359.497 29.3754 360.338 29.6418C361.171 29.9081 361.865 30.511 362.229 31.31L363.434 33.9035L366.306 32.2493C367.798 31.3871 369.71 31.8988 370.572 33.3848L372.148 36.0975L374.893 34.5134C376.294 33.7003 378.081 34.0998 379.012 35.4176L380.987 38.2144L383.67 36.6653C384.987 35.9012 386.668 36.2026 387.642 37.3802L390.009 40.2331L392.769 38.6419C394.016 37.92 395.599 38.1443 396.594 39.1957L399.333 42.0766L402.541 40.2191C403.64 39.5812 405.02 39.6793 406.022 40.4574L409.692 43.3103L418.406 38.2775C419.898 37.4153 421.81 37.927 422.679 39.42C423.541 40.92 423.029 42.8336 421.537 43.6958L411.002 49.78C409.903 50.4179 408.523 50.3197 407.521 49.5417L403.851 46.6888L400.334 48.7216C399.08 49.4436 397.504 49.2192 396.51 48.1678L393.771 45.2869L390.857 46.9692C389.533 47.7332 387.859 47.4318 386.885 46.2542L384.518 43.4014L381.646 45.0626C380.245 45.8687 378.459 45.4762 377.527 44.1584L375.552 41.3616L372.582 43.0789C371.09 43.9411 369.178 43.4294 368.316 41.9434L366.74 39.2307L363.609 41.0392C362.845 41.4808 361.935 41.5789 361.101 41.3126C360.268 41.0462 359.574 40.4434 359.21 39.6443L358.005 37.0508L354.503 39.0765C353.69 39.5462 352.703 39.6233 351.827 39.2938C350.952 38.9574 350.265 38.2494 349.971 37.3522L349.172 34.9339L345.243 37.205C344.367 37.7097 343.302 37.7588 342.378 37.3382C341.46 36.9176 340.795 36.0765 340.606 35.0881L340.185 32.9012L335.885 35.3825C334.554 36.1536 332.866 35.8382 331.899 34.6465C330.932 33.4549 330.967 31.7376 331.99 30.5881L332.326 30.2095L317.581 38.7261C317 39.0625 316.363 39.1887 315.739 39.1326L241.182 85.3601C241.595 86.6569 241.133 88.1148 239.956 88.9069L219.236 102.905C219.587 103.136 219.895 103.445 220.133 103.823C221.03 105.239 220.658 107.111 219.285 108.071L204.464 118.445C204.884 118.683 205.255 119.027 205.535 119.461C206.439 120.856 206.096 122.721 204.744 123.695L193.123 132.113C193.578 132.352 193.978 132.702 194.272 133.158C195.182 134.539 194.86 136.389 193.543 137.384L184.066 144.513C184.528 144.744 184.942 145.095 185.257 145.557C186.174 146.917 185.887 148.761 184.598 149.77L176.718 155.96C177.181 156.184 177.594 156.527 177.909 156.983C178.834 158.322 178.588 160.144 177.335 161.182L170.988 166.439C171.458 166.656 171.885 166.999 172.207 167.448C173.146 168.752 172.943 170.56 171.738 171.619L166.814 175.965C167.423 176.217 167.948 176.666 168.306 177.282C169.167 178.782 168.656 180.696 167.164 181.558L147.565 192.878C147.075 193.159 146.535 193.299 146.003 193.299L145.982 193.327ZM518.327 110.419C517.263 110.419 516.226 109.879 515.645 108.898C514.769 107.433 515.224 105.533 516.674 104.629L541.163 89.3555C540.448 89.1452 539.804 88.6756 539.383 87.9887C538.501 86.5447 538.921 84.6521 540.343 83.7269L578.455 58.9344C578.287 58.7591 578.14 58.5629 578.014 58.3456C577.152 56.8526 577.664 54.932 579.156 54.0698L639.781 19.0435C641.252 18.1953 643.122 18.672 644.012 20.1159C644.894 21.5599 644.474 23.4524 643.052 24.3777L642.982 24.4267L673.907 6.55958C675.385 5.70442 677.277 6.19508 678.152 7.66007C678.425 8.12269 678.573 8.62737 678.594 9.13206L689.121 3.04783C690.501 2.25576 692.253 2.62025 693.198 3.90299L695.279 6.7208L705.407 0.867883C706.731 0.10385 708.405 0.405258 709.379 1.58285L711.739 4.43571L718.688 0.419276C720.159 -0.42887 722.036 0.0477745 722.919 1.50575L724.586 4.23944L730.232 0.973025C731.002 0.531428 731.913 0.433296 732.76 0.706665C733.608 0.980035 734.287 1.59687 734.652 2.40296L735.807 4.98245L740.444 2.30483C741.271 1.82818 742.273 1.75108 743.162 2.10155C744.052 2.45202 744.731 3.18802 745.004 4.10626L745.719 6.48247L749.466 4.31655C750.356 3.80485 751.442 3.75579 752.366 4.19738C753.298 4.63898 753.949 5.50816 754.11 6.51752L754.461 8.6484L757.417 6.93809C758.369 6.38434 759.546 6.37733 760.506 6.91706C761.465 7.45679 762.075 8.45915 762.11 9.55963L762.166 11.4242L764.372 10.1484C765.388 9.55963 766.642 9.59468 767.629 10.2255C768.617 10.8564 769.163 11.9919 769.051 13.1555L768.897 14.7607L770.445 13.8635C771.517 13.2466 772.848 13.3167 773.849 14.0387C774.851 14.7677 775.328 16.0084 775.068 17.221L774.781 18.5808L775.692 18.0551C776.812 17.4102 778.213 17.5154 779.222 18.3355C780.231 19.1486 780.63 20.5014 780.231 21.7351L779.859 22.8776L780.154 22.7094C781.323 22.0365 782.794 22.1837 783.803 23.0879C784.812 23.9851 785.127 25.4291 784.588 26.6698L784.16 27.6581C785.302 27.1885 786.626 27.4268 787.53 28.303C788.531 29.2773 788.769 30.7983 788.104 32.032L787.523 33.1115C788.538 32.9222 789.603 33.2447 790.352 34.0227C791.347 35.0601 791.508 36.6442 790.738 37.8639L789.876 39.2237C790.78 39.2097 791.627 39.5602 792.251 40.2471C793.238 41.3406 793.336 42.9738 792.475 44.1724L791.193 45.9598C791.943 46.051 792.65 46.4155 793.175 47.0183C794.156 48.1538 794.198 49.8221 793.266 50.9997L791.424 53.3408C792.055 53.502 792.643 53.8525 793.077 54.3852C794.051 55.5698 794.023 57.2801 793.021 58.4297L790.31 61.5349C790.85 61.7452 791.333 62.1027 791.697 62.6003C792.643 63.8831 792.475 65.6705 791.305 66.757L785.884 71.7687C786.346 72.0351 786.752 72.4206 787.039 72.9183C787.901 74.4113 787.389 76.3319 785.897 77.1941L769.927 86.4185C768.547 87.2176 766.789 86.8461 765.843 85.5634C764.898 84.2806 765.073 82.4932 766.235 81.4068L775.475 72.8622C774.557 71.6846 774.599 70.0164 775.587 68.8808L778.907 65.0747C778.571 64.8994 778.262 64.6541 778.003 64.3597C777.023 63.2242 776.981 61.5559 777.912 60.3783L780.098 57.6026C779.614 57.4344 779.173 57.147 778.809 56.7474C777.821 55.6539 777.723 54.0207 778.585 52.8221L780.182 50.5931C779.614 50.4599 779.075 50.1655 778.648 49.7169C777.653 48.6795 777.492 47.0954 778.262 45.8757L779.369 44.1304C778.697 44.0603 778.038 43.7659 777.527 43.2682C776.525 42.2939 776.287 40.7728 776.953 39.5392L777.681 38.1863C776.875 38.2284 776.063 37.955 775.433 37.3943C774.424 36.497 774.109 35.0531 774.648 33.8124L775.138 32.6909C774.2 32.9292 773.177 32.7189 772.4 32.0881C771.391 31.275 770.992 29.9222 771.391 28.6885L771.762 27.5459C770.704 28.1277 769.402 28.0436 768.421 27.3357C767.419 26.6067 766.943 25.366 767.202 24.1534L767.489 22.7935L766.768 23.2071C765.752 23.7889 764.498 23.7608 763.511 23.13C762.523 22.4991 761.977 21.3636 762.089 20.2L762.243 18.5948L760.751 19.457C759.798 20.0108 758.621 20.0178 757.662 19.478C756.702 18.9383 756.093 17.936 756.058 16.8355L756.002 14.9709L753.662 16.3238C752.773 16.8355 751.687 16.8775 750.762 16.4429C749.831 16.0013 749.179 15.1322 749.018 14.1228L748.668 11.9919L745.425 13.8635C744.598 14.3401 743.596 14.4172 742.714 14.0597C741.824 13.7092 741.145 12.9732 740.872 12.055L740.157 9.67879L735.933 12.1181C735.17 12.5597 734.245 12.6578 733.405 12.3845C732.564 12.1111 731.878 11.4942 731.514 10.6882L730.358 8.10867L725.062 11.1648C723.591 12.0129 721.714 11.5363 720.824 10.0853L719.157 7.35165L712.566 11.1578C711.249 11.9218 709.568 11.6204 708.594 10.4428L706.234 7.58997L695.972 13.52C694.592 14.3191 692.841 13.9476 691.895 12.6648L689.815 9.84702L666.118 23.5365C664.626 24.3987 662.714 23.887 661.845 22.394C661.705 22.1487 661.6 21.8893 661.53 21.6229L599.056 60.5886C599.056 60.5886 599.056 60.6026 599.07 60.6096C599.931 62.1097 599.42 64.0233 597.928 64.8854L519.882 109.977C519.392 110.265 518.853 110.398 518.32 110.398L518.327 110.419Z" fill="#040404"/>
</svg>
