<svg width="1920" height="1080" viewBox="0 0 1920 1080" fill="none" xmlns="http://www.w3.org/2000/svg">
<path d="M0.302035 230.64C14.5312 226.514 26.1428 219.032 36.5126 207.96C42.2177 201.854 52.3862 197.325 60.8096 196.822C76.549 195.882 86.5832 186.153 98.7989 179.006C107.39 174.007 118.498 173.538 128.331 170.484C134.808 168.471 140.882 165.251 147.292 163.036C156.622 159.815 163.871 150.891 176.321 155.588C180.818 157.299 188.402 150.857 194.544 148.006C198.638 146.093 202.531 143.745 206.726 142.067C211.558 140.088 216.458 137.974 221.559 137.135C225.855 136.431 230.452 137.437 237.064 137.806C237.5 136.8 238.171 133.344 240.218 131.063C243.708 127.204 247.635 121.87 252.065 121.098C266.864 118.481 280.456 113.348 293.208 105.665C294.383 104.96 295.558 103.551 296.665 103.618C307.907 104.122 319.15 104.826 330.392 105.598C332.07 105.699 333.782 106.739 335.393 106.537C346.232 105.262 357.038 103.015 367.912 102.646C374.758 102.411 381.738 104.659 388.584 106.068C393.215 107.041 397.88 109.825 402.344 109.456C414.291 108.517 422.278 112.711 428.184 123.313C430.567 127.607 435.937 131.331 440.769 132.975C462.616 140.39 480.47 151.428 489.43 174.443C493.189 184.039 500.102 192.661 506.646 200.881C513.056 208.933 524.802 209.369 536.95 203.565C551.448 196.62 564.033 202.022 569.402 217.287C572.758 226.883 581.316 229.466 589.873 230.406C608.532 232.486 627.359 233.056 645.951 235.472C655.348 236.68 664.375 240.84 673.671 243.155C678.101 244.262 682.833 244.161 688.605 244.732C688.068 241.477 688.37 238.894 687.263 237.216C681.356 228.124 675.383 218.998 668.738 210.41C667.127 208.329 663.134 207.692 660.08 207.289C657.798 206.987 654.005 209.202 653.234 208.296C651.455 206.216 650.549 202.961 650.28 200.109C649.374 191.152 648.904 182.16 648.2 173.202C648.133 172.196 647.226 171.088 647.495 170.25C653.166 150.958 637.83 137.639 633.702 121.132C629.138 102.914 624.775 84.6624 620.178 65.6393C630.413 63.3579 634.306 58.8958 629.406 48.7971C632.46 50.4746 635.548 52.1185 640.481 54.8026C642.528 42.9593 659.778 39.6042 655.247 24.0704C655.146 23.7349 655.046 23.2651 655.214 23.0638C662.429 13.7704 668.235 2.59808 677.329 -4.21265C685.249 -10.1175 688.907 -16.2237 689.847 -25.081C690.921 -34.8442 691.525 -44.6409 692.934 -54.3705C693.27 -56.6855 695.753 -60.2419 697.633 -60.4767C711.862 -62.4227 713.808 -74.4337 719.279 -84.2976C721.997 -89.196 722.702 -97.6842 731.427 -97.9861C732.165 -97.9861 733.575 -99.4623 733.474 -100.033C730.823 -114.594 743.676 -116.875 751.764 -122.042C760.523 -127.645 770.725 -130.866 779.987 -135.764C790.022 -141.065 799.653 -147.205 809.587 -152.74C811.869 -154.015 814.688 -154.384 817.305 -155.089C823.514 -156.834 829.42 -158.712 828.581 -167.134C828.447 -168.375 829.085 -169.851 829.79 -170.958C838.481 -184.446 868.047 -195.987 883.585 -191.76C894.895 -188.707 904.929 -192.062 914.762 -197.027C928.119 -203.737 942.113 -206.589 957.147 -206.589C963.792 -206.589 970.437 -210.179 977.082 -212.091C984.901 -214.339 993.929 -214.842 1000.2 -219.271C1007.15 -224.203 1012.12 -230.443 1021.78 -226.048C1023.63 -225.209 1027.32 -226.518 1029.23 -228.028C1040.34 -236.617 1053.46 -238.73 1066.45 -237.556C1090.55 -235.342 1112.23 -239.938 1133.5 -251.848C1153.87 -263.256 1182.2 -260.639 1196.96 -241.28C1200.79 -236.247 1205.32 -235.409 1210.35 -239.2C1233.54 -256.613 1261.23 -263.155 1288.11 -271.71C1296.53 -274.394 1305.12 -276.676 1313.31 -280.031C1319.02 -282.346 1323.11 -281.675 1328.52 -278.655C1331.27 -277.112 1336.97 -280.501 1341.17 -282.044C1346.34 -283.956 1351.34 -286.305 1356.44 -288.385C1357.34 -288.754 1358.85 -288.116 1359.46 -288.653C1379.63 -306.167 1408.12 -299.591 1429.7 -313.078C1435.81 -316.869 1441.98 -320.962 1448.69 -323.311C1460.64 -327.505 1474.2 -328.411 1484.97 -334.45C1503.66 -344.917 1524.27 -343.374 1543.77 -345.756C1557.49 -347.434 1572.32 -340.019 1586.69 -336.899C1595.04 -335.087 1603.5 -333.376 1611.99 -332.403C1622.97 -331.128 1627.8 -324.317 1623.74 -314.789C1626.62 -311.4 1629.14 -307.542 1632.53 -304.724C1634.71 -302.912 1638.13 -302.543 1641.05 -301.671C1644.54 -300.631 1650.35 -300.597 1651.16 -298.584C1652.63 -294.793 1653 -288.016 1650.69 -285.768C1645.92 -281.172 1644.38 -276.81 1649.04 -272.985C1651.76 -270.771 1657.53 -270.838 1661.46 -271.777C1670.55 -273.925 1679.41 -277.213 1688.34 -280.131C1689.95 -280.668 1691.59 -281.306 1692.94 -282.279C1703.71 -290.264 1715.02 -289.022 1724.15 -280.098C1734.75 -269.731 1747.37 -261.209 1756.9 -250.003C1774.22 -229.672 1796.74 -231.886 1819.36 -232.389C1837.11 -232.792 1854.86 -233.396 1872.58 -232.926C1877.55 -232.792 1882.48 -229.269 1887.35 -227.189C1888.25 -226.82 1889.23 -225.209 1889.66 -225.377C1906.44 -232.557 1906.41 -212.058 1916.91 -208.468C1919.16 -207.696 1920.13 -200.617 1920.13 -196.457C1920.3 -146.802 1920.13 -97.1474 1920.13 -47.4927C1920.13 11.4554 1920.17 70.37 1920.2 129.318C1920.2 133.076 1920.2 136.8 1920.2 138.142C1913.29 143.107 1908.19 146.865 1902.99 150.421C1900.77 151.931 1898.35 153.273 1895.87 154.28C1885.23 158.608 1872.65 160.587 1864.29 167.599C1851.94 177.966 1837.75 179.275 1823.62 182.898C1814.86 185.146 1806.84 190.917 1798.05 192.359C1785.9 194.339 1772.61 196.453 1761.06 193.534C1746.13 189.776 1734.48 190.883 1726.16 204.001C1724.58 206.484 1723.95 210.51 1724.68 213.396C1726.83 221.817 1724.62 226.346 1716.26 225.608C1708.24 224.903 1706.5 227.923 1705.22 235.069C1703.24 246.107 1701.02 257.313 1685.05 257.313C1674.65 257.313 1664.24 260.467 1653.87 262.379C1652.03 262.715 1649.34 263.352 1648.67 264.661C1643.71 274.222 1635.82 274.759 1626.69 272.31C1638.67 287.844 1653.74 282.107 1676.09 280.06C1689.68 278.819 1703.34 278.181 1716.93 276.839C1731.56 275.43 1738.14 285.428 1744.95 295.527C1746.57 297.943 1749.42 301.6 1751.33 301.398C1767.47 299.452 1774.42 312.202 1782.91 321.394C1790.02 329.077 1801.27 334.546 1800.96 347.597C1800.96 348.101 1801.7 348.973 1802.24 349.141C1807.88 350.919 1814.66 351.221 1818.95 354.643C1824.46 359.072 1828.05 361.152 1834.99 357.159C1839.26 354.71 1845.87 356.689 1850.93 355.146C1858.55 352.831 1865.87 349.409 1873.08 345.953C1881.37 341.961 1897.21 345.417 1903.56 352.999C1904.43 354.039 1905.4 355.448 1906.58 355.716C1921.14 359.105 1920.07 369.64 1920.07 381.383C1919.77 545.78 1919.9 710.143 1919.93 874.54C1919.93 886.25 1919.6 898.026 1920.3 909.701C1920.74 917.049 1916.44 918.995 1911.11 921.31C1900.37 926.04 1889.7 931.039 1879.26 936.407C1876.78 937.682 1874.49 940.702 1873.49 943.42C1870.3 952.109 1867.45 960.933 1865 969.857C1861.74 981.801 1850.67 989.283 1838.38 990.591C1828.72 991.598 1818.99 994.953 1809.99 998.878C1794.79 1005.55 1781.47 1016.69 1764.18 1018.47C1758.85 1019.04 1753.41 1019.55 1748.08 1019.21C1740.93 1018.74 1733.85 1016.79 1726.73 1016.66C1717.67 1016.46 1710.19 1014.81 1704.35 1006.73C1699.82 1000.46 1686.02 1003.07 1678.07 1010.79C1677.1 1011.73 1676.36 1012.87 1674.82 1014.75C1671.83 1012.1 1669.45 1008.91 1666.29 1007.43C1662.67 1005.72 1658.34 1004.95 1654.31 1004.85C1645.05 1004.62 1635.48 1006.26 1627.8 999.013C1622.09 993.645 1615.58 992.873 1608.77 996.396C1599.91 1000.96 1606.19 1008.44 1606.92 1013.71C1608.77 1026.22 1606.19 1033.7 1595.78 1040.18C1592.02 1042.53 1589.64 1047.06 1586.65 1050.65C1585.48 1052.06 1584.41 1053.57 1583.27 1055.04C1582.06 1053.7 1580.28 1052.53 1579.71 1050.95C1576.28 1041.42 1574.44 1040.72 1566.42 1045.98C1565.04 1042.02 1563.6 1037.93 1562.02 1033.44C1549.1 1041.05 1538.83 1033.07 1528.03 1032.13C1519.44 1031.39 1509.77 1030.55 1502.25 1033.7C1494.27 1037.06 1488.59 1037.23 1482.62 1031.79C1476.95 1026.66 1472.38 1027.56 1466.24 1031.82C1457.01 1038.27 1446.81 1039.98 1435.7 1034.54C1421.81 1027.77 1408.49 1021.02 1406.47 1003.37C1406.41 1002.7 1406.27 1001.83 1405.8 1001.46C1397.41 994.081 1400.03 987.337 1409.76 979.352C1397.38 965.731 1385.57 952.814 1373.89 939.729C1372.11 937.716 1371.57 934.394 1369.56 932.851C1365.83 929.932 1361.61 927.517 1357.28 925.604C1354.29 924.262 1350.77 924.262 1347.54 923.356C1344.29 922.417 1341.13 921.109 1337.91 919.968C1336.7 923.692 1335.36 927.382 1334.29 931.14C1333.95 932.348 1334.22 933.757 1334.22 936.575C1321.37 931.878 1306.27 936.475 1298.08 920.874C1295.83 916.613 1288.61 914.969 1283.11 911.815C1274.85 908.896 1265.96 902.387 1258.98 904.031C1247.91 906.648 1243.44 899.804 1239.89 894.234C1232.87 883.23 1223.44 875.513 1213.71 867.495C1207.7 862.529 1203.17 855.819 1197.77 850.082C1194.78 846.928 1191.39 844.11 1187.47 840.487C1185.52 844.312 1184.18 846.895 1181.79 851.592C1177.53 832.401 1162.83 829.08 1148.91 823.275C1136.19 817.974 1124.94 809.05 1113.17 801.501C1107.53 797.878 1102.19 793.785 1097.06 790.128C1088.06 792.644 1099.88 805.024 1088.7 806.03C1088.36 798.146 1089.27 789.356 1076.28 790.362C1079 797.274 1079.57 805.057 1088.97 805.796C1086.96 813.714 1083.03 816.23 1075.98 810.526C1074.94 809.688 1073.06 808.413 1072.49 808.782C1062.83 814.988 1056.32 806.567 1048.93 803.548C1035.14 797.878 1021.68 791.268 1008.16 784.927C1006.38 784.089 1004.84 782.579 1003.46 781.136C992.184 769.226 980.371 757.718 969.9 745.103C964.128 738.124 961.342 728.697 955.704 721.55C952.449 717.457 946.274 715.578 941.307 712.894C932.314 708.03 923.219 703.232 914.158 698.468C909.124 695.817 903.654 693.838 899.056 690.583C891.572 685.282 884.793 679.042 877.477 673.473C867.041 665.555 856.503 657.704 845.73 650.222C843.549 648.713 840.159 648.88 836.367 650.558C839.22 654.282 842.408 657.771 844.824 661.764C852.14 673.942 849.422 682.666 835.864 688.705C826.568 692.865 833.85 702.896 828.112 708.03C830.897 710.11 833.682 712.156 836.468 714.236C839.723 716.686 843.952 718.497 846.066 721.685C861.939 745.573 877.511 769.695 892.982 793.885C901.506 807.171 909.661 820.658 917.95 834.079C919.024 835.79 920.97 837.803 920.668 839.346C918.286 853.202 928.018 861.187 936.777 867.226C951.04 877.057 956.174 891.752 962.181 906.145C965.067 913.056 968.121 918.122 975.806 919.934C983.492 921.712 987.586 926.577 989.532 934.764C991.109 941.373 996.311 947.043 998.895 953.552C1000 956.336 999.466 960.564 998.09 963.382C993.224 973.414 987.787 983.177 982.351 992.906C980.874 995.523 979.028 999.314 976.746 999.851C970.94 1001.16 969.866 1003.41 969.229 1009.48C968.155 1019.41 963.96 1029.01 961.275 1038.8C960.57 1041.35 959.832 1044.21 960.268 1046.72C963.356 1064.03 955.872 1075.47 941.14 1083.73C932.716 1088.42 930.87 1096.68 930.837 1105.9C930.803 1115.1 929.26 1124.26 929.125 1133.45C929.058 1137.21 930.334 1141.33 932.146 1144.66C935.804 1151.23 940.737 1157.14 944.294 1163.75C949.563 1173.47 950.167 1183.27 943.321 1192.97C935.971 1203.4 925.367 1205.15 914.057 1204.01C898.989 1202.46 892.042 1206.99 889.358 1221.72C889.089 1223.13 889.827 1225.31 890.868 1226.25C900.365 1234.81 900.264 1247.12 902.144 1257.99C904.728 1272.78 896.606 1283.18 880.901 1289.93C871.705 1293.89 868.181 1302.88 874.591 1310.83C888.921 1328.68 873.517 1357.9 852.576 1359.88C839.253 1361.12 825.326 1359.01 812.037 1356.49C799.62 1354.18 798.881 1354.88 794.082 1366.02C791.196 1372.7 783.578 1377.43 777.705 1382.63C774.953 1385.08 771.329 1386.52 768.208 1388.33C773.041 1409.77 771.698 1413.02 753.408 1424.6C742.77 1419.6 731.595 1430.57 721.326 1423.93C714.58 1419.57 708.774 1413.76 702.465 1408.73C700.116 1406.89 697.498 1405.38 694.243 1403.23C692.699 1406.89 691.592 1409.54 690.451 1412.19C689.746 1412.09 688.639 1412.05 688.605 1411.85C687.364 1402.96 679.041 1404.2 673.638 1401.99C666.859 1399.2 659.476 1397.79 652.227 1396.32C648.602 1395.58 644.709 1396.18 640.951 1395.95C634.877 1395.58 628.802 1394.97 622.527 1394.47C617.526 1398.36 611.15 1403.36 607.324 1406.35C600.478 1407.99 596.015 1409.07 591.518 1410.14C590.545 1410.37 589.471 1410.91 588.598 1410.71C581.417 1409.07 574.335 1406.55 567.087 1405.85C562.59 1405.41 557.824 1408.6 553.193 1408.56C537.689 1408.46 523.963 1414.43 510.103 1420.1C509.465 1420.37 508.626 1420.98 508.19 1420.74C494.9 1414.33 479.195 1425.91 465.536 1412.69C457.717 1405.11 443.42 1404.23 432.044 1400.31C430.131 1399.64 427.58 1399.5 426.439 1398.2C418.217 1388.67 410.465 1378.7 402.176 1369.21C395.833 1361.96 388.718 1355.39 382.309 1348.17C380.295 1345.92 377.879 1342.17 378.449 1339.82C381.637 1326.8 381.872 1326.8 368.012 1325.06C366.368 1324.85 364.757 1324.32 363.213 1323.95C364.656 1311.5 364.69 1311.77 351.971 1312.24C346.903 1312.41 341.702 1311.43 336.668 1310.36C322.674 1307.34 307.438 1307.78 296.43 1296.24C289.316 1288.79 282.402 1281.17 275.12 1273.92C273.106 1271.95 269.281 1269.16 267.636 1269.87C252.904 1276.21 241.695 1266.14 233.473 1258.76C224.814 1250.94 221.391 1237.12 216.122 1225.71C209.646 1211.76 212.095 1197.87 216.425 1183.74C217.633 1179.82 215.72 1174.18 213.606 1170.19C204.645 1153.11 206.424 1135.43 210.35 1117.85C211.324 1113.49 215.518 1108.82 219.512 1106.34C231.694 1098.72 235.251 1089.13 232.13 1074.94C230.788 1068.86 234.211 1061.18 237.03 1054.94C240.386 1047.56 245.923 1041.19 249.648 1033.94C254.682 1024.21 248.239 1013.37 243.037 1009.82C229.882 1000.86 236.191 989.887 236.996 980.224C237.768 970.964 242.836 962.107 245.554 952.948C246.326 950.364 245.823 947.211 245.218 944.493C245.051 943.789 241.124 942.983 240.856 943.386C239.446 945.667 237.5 948.486 237.802 950.868C239.144 961.402 229.043 957.142 225.083 961.503C225.318 975.93 212.968 981.566 203.169 987.639C195.618 992.336 187.765 994.248 181.993 1003.17C175.012 1014.04 163.468 1022.03 153.568 1030.92C146.386 1037.39 138.735 1043.33 130.244 1050.38C134.842 1058.6 129.808 1061.05 120.243 1062.26C112.86 1063.16 105.779 1066.85 98.7653 1069.23C99.6043 1072.12 99.6378 1072.86 100.007 1073.39C102.088 1076.55 106.685 1081.55 105.981 1082.42C101.551 1088.02 97.6243 1083.53 94.067 1080.34C88.8653 1075.68 85.7442 1076.61 83.8985 1083.36C81.9856 1090.37 78.4283 1093.73 70.1391 1095.84C62.5547 1097.79 51.8157 1098.42 47.5201 1108.92C46.0435 1112.55 41.4794 1116.04 37.553 1117.38C22.5855 1122.61 10.9404 1132.24 0 1143.15V230.64H0.302035Z" fill="url(#paint0_linear_1_773)"/>
<defs>
<linearGradient id="paint0_linear_1_773" x1="994.172" y1="753.704" x2="994.172" y2="-346" gradientUnits="userSpaceOnUse">
<stop stop-color="white" stop-opacity="0"/>
<stop offset="0.505" stop-color="white"/>
</linearGradient>
</defs>
</svg>
